<svg width="1230" height="1257" viewBox="0 0 1230 1257" fill="none" xmlns="http://www.w3.org/2000/svg">
<g clip-path="url(#clip0_183_38)">
<rect width="1230" height="1257" fill="white"/>
<path opacity="0.15" d="M-87.3105 807.885C131.541 428.09 350.392 391.335 569.244 697.622C788.095 1003.91 1006.95 1040.66 1225.8 807.885" stroke="url(#paint0_linear_183_38)" stroke-width="3.5" stroke-linecap="round"/>
<path opacity="0.34" d="M-87.3105 798.697C131.541 425.027 350.392 391.335 569.244 697.622C788.095 1003.91 1006.95 1037.6 1225.8 798.697" stroke="url(#paint1_linear_183_38)" stroke-width="3.5" stroke-linecap="round"/>
<path opacity="0.15" d="M-87.3105 789.508C131.541 421.964 350.392 391.335 569.244 697.622C788.095 1003.91 1006.95 1034.54 1225.8 789.508" stroke="url(#paint2_linear_183_38)" stroke-width="3.5" stroke-linecap="round"/>
<path opacity="0.8" d="M-87.3105 780.319C131.541 418.901 350.392 391.335 569.244 697.622C788.095 1003.91 1006.95 1031.47 1225.8 780.319" stroke="url(#paint3_linear_183_38)" stroke-width="3.5" stroke-linecap="round"/>
<path opacity="0.62" d="M-87.3105 771.131C131.541 415.838 350.392 391.335 569.244 697.622C788.095 1003.91 1006.95 1028.41 1225.8 771.131" stroke="url(#paint4_linear_183_38)" stroke-width="3.5" stroke-linecap="round"/>
<path opacity="0.91" d="M-87.3105 761.942C131.541 412.775 350.392 391.335 569.244 697.622C788.095 1003.91 1006.95 1025.35 1225.8 761.942" stroke="url(#paint5_linear_183_38)" stroke-width="3.5" stroke-linecap="round"/>
<path opacity="0.93" d="M-87.3105 752.754C131.541 409.713 350.392 391.335 569.244 697.622C788.095 1003.91 1006.95 1022.29 1225.8 752.754" stroke="url(#paint6_linear_183_38)" stroke-width="3.5" stroke-linecap="round"/>
<path opacity="0.76" d="M-87.3105 743.565C131.541 406.65 350.392 391.335 569.244 697.622C788.095 1003.91 1006.95 1019.22 1225.8 743.565" stroke="url(#paint7_linear_183_38)" stroke-width="3.5" stroke-linecap="round"/>
<path opacity="0.27" d="M-87.3105 734.376C131.541 403.587 350.392 391.335 569.244 697.622C788.095 1003.91 1006.95 1016.16 1225.8 734.376" stroke="url(#paint8_linear_183_38)" stroke-width="3.5" stroke-linecap="round"/>
<path opacity="0.65" d="M-87.3105 725.188C131.541 400.524 350.392 391.335 569.244 697.622C788.095 1003.91 1006.95 1013.1 1225.8 725.188" stroke="url(#paint9_linear_183_38)" stroke-width="3.5" stroke-linecap="round"/>
<path opacity="0.28" d="M-87.3105 715.999C131.541 397.461 350.392 391.335 569.244 697.622C788.095 1003.91 1006.95 1010.03 1225.8 715.999" stroke="url(#paint10_linear_183_38)" stroke-width="3.5" stroke-linecap="round"/>
<path opacity="0.8" d="M-87.3105 706.811C131.541 394.398 350.392 391.335 569.244 697.622C788.095 1003.91 1006.95 1006.97 1225.8 706.811" stroke="url(#paint11_linear_183_38)" stroke-width="3.5" stroke-linecap="round"/>
<path opacity="0.9" d="M-87.3105 697.622C131.541 391.335 350.392 391.335 569.244 697.622C788.095 1003.91 1006.95 1003.91 1225.8 697.622" stroke="url(#paint12_linear_183_38)" stroke-width="3.5" stroke-linecap="round"/>
<path opacity="0.72" d="M-87.3105 688.433C131.541 388.273 350.392 391.335 569.244 697.622C788.095 1003.91 1006.95 1000.85 1225.8 688.433" stroke="url(#paint13_linear_183_38)" stroke-width="3.5" stroke-linecap="round"/>
<path opacity="0.27" d="M-87.3105 679.245C131.541 385.21 350.392 391.335 569.244 697.622C788.095 1003.91 1006.95 997.783 1225.8 679.245" stroke="url(#paint14_linear_183_38)" stroke-width="3.5" stroke-linecap="round"/>
<path opacity="0.26" d="M-87.3105 670.056C131.541 382.147 350.392 391.335 569.244 697.622C788.095 1003.91 1006.95 994.72 1225.8 670.056" stroke="url(#paint15_linear_183_38)" stroke-width="3.5" stroke-linecap="round"/>
<path opacity="0.15" d="M-87.3105 660.868C131.541 379.084 350.392 391.335 569.244 697.622C788.095 1003.91 1006.95 991.657 1225.8 660.868" stroke="url(#paint16_linear_183_38)" stroke-width="3.5" stroke-linecap="round"/>
<path opacity="0.19" d="M-87.3105 651.679C131.541 376.021 350.392 391.335 569.244 697.622C788.095 1003.91 1006.95 988.594 1225.8 651.679" stroke="url(#paint17_linear_183_38)" stroke-width="3.5" stroke-linecap="round"/>
<path opacity="0.34" d="M-87.3105 642.49C131.541 372.958 350.392 391.335 569.244 697.622C788.095 1003.91 1006.95 985.531 1225.8 642.49" stroke="url(#paint18_linear_183_38)" stroke-width="3.5" stroke-linecap="round"/>
<path opacity="0.24" d="M-87.3105 633.302C131.541 369.895 350.392 391.335 569.244 697.622C788.095 1003.91 1006.95 982.468 1225.8 633.302" stroke="url(#paint19_linear_183_38)" stroke-width="3.5" stroke-linecap="round"/>
<path opacity="0.6" d="M-87.3105 624.113C131.541 366.833 350.392 391.335 569.244 697.622C788.095 1003.91 1006.95 979.406 1225.8 624.113" stroke="url(#paint20_linear_183_38)" stroke-width="3.5" stroke-linecap="round"/>
<path opacity="0.16" d="M-87.3105 614.925C131.541 363.77 350.392 391.335 569.244 697.622C788.095 1003.91 1006.95 976.343 1225.8 614.925" stroke="url(#paint21_linear_183_38)" stroke-width="3.5" stroke-linecap="round"/>
<path opacity="0.6" d="M-87.3105 605.736C131.541 360.707 350.392 391.335 569.244 697.622C788.095 1003.91 1006.95 973.28 1225.8 605.736" stroke="url(#paint22_linear_183_38)" stroke-width="3.5" stroke-linecap="round"/>
<path opacity="0.08" d="M-87.3105 596.547C131.541 357.644 350.392 391.335 569.244 697.622C788.095 1003.91 1006.95 970.217 1225.8 596.547" stroke="url(#paint23_linear_183_38)" stroke-width="3.5" stroke-linecap="round"/>
<path opacity="0.84" d="M-87.3105 587.359C131.541 354.581 350.392 391.335 569.244 697.622C788.095 1003.91 1006.95 967.154 1225.8 587.359" stroke="url(#paint24_linear_183_38)" stroke-width="3.5" stroke-linecap="round"/>
<path opacity="0.38" d="M-87.3105 578.17C131.541 351.518 350.392 391.335 569.244 697.622C788.095 1003.91 1006.95 964.091 1225.8 578.17" stroke="url(#paint25_linear_183_38)" stroke-width="3.5" stroke-linecap="round"/>
<path opacity="0.39" d="M-87.3105 568.982C131.541 348.455 350.392 391.335 569.244 697.622C788.095 1003.91 1006.95 961.028 1225.8 568.982" stroke="url(#paint26_linear_183_38)" stroke-width="3.5" stroke-linecap="round"/>
<path opacity="0.14" d="M-87.3105 559.793C131.541 345.392 350.392 391.335 569.244 697.622C788.095 1003.91 1006.95 957.966 1225.8 559.793" stroke="url(#paint27_linear_183_38)" stroke-width="3.5" stroke-linecap="round"/>
<path opacity="0.88" d="M-87.3105 550.604C131.541 342.33 350.392 391.335 569.244 697.622C788.095 1003.91 1006.95 954.903 1225.8 550.604" stroke="url(#paint28_linear_183_38)" stroke-width="3.5" stroke-linecap="round"/>
<path opacity="0.81" d="M-87.3105 541.416C131.541 339.267 350.392 391.335 569.244 697.622C788.095 1003.91 1006.95 951.84 1225.8 541.416" stroke="url(#paint29_linear_183_38)" stroke-width="3.5" stroke-linecap="round"/>
<path opacity="0.19" d="M-87.3105 532.227C131.541 336.204 350.392 391.335 569.244 697.622C788.095 1003.91 1006.95 948.777 1225.8 532.227" stroke="url(#paint30_linear_183_38)" stroke-width="3.5" stroke-linecap="round"/>
<path opacity="0.57" d="M-87.3105 523.039C131.541 333.141 350.392 391.335 569.244 697.622C788.095 1003.91 1006.95 945.714 1225.8 523.039" stroke="url(#paint31_linear_183_38)" stroke-width="3.5" stroke-linecap="round"/>
<path opacity="0.71" d="M-87.3105 513.85C131.541 330.078 350.392 391.335 569.244 697.622C788.095 1003.91 1006.95 942.651 1225.8 513.85" stroke="url(#paint32_linear_183_38)" stroke-width="3.5" stroke-linecap="round"/>
<path opacity="0.56" d="M-87.3105 504.661C131.541 327.015 350.392 391.335 569.244 697.622C788.095 1003.91 1006.95 939.588 1225.8 504.661" stroke="url(#paint33_linear_183_38)" stroke-width="3.5" stroke-linecap="round"/>
<path opacity="0.31" d="M-87.3105 495.473C131.541 323.952 350.392 391.335 569.244 697.622C788.095 1003.91 1006.95 936.525 1225.8 495.473" stroke="url(#paint34_linear_183_38)" stroke-width="3.5" stroke-linecap="round"/>
<path opacity="0.52" d="M-87.3105 486.284C131.541 320.889 350.392 391.335 569.244 697.622C788.095 1003.91 1006.95 933.463 1225.8 486.284" stroke="url(#paint35_linear_183_38)" stroke-width="3.5" stroke-linecap="round"/>
<path opacity="0.39" d="M-87.3105 477.096C131.541 317.827 350.392 391.335 569.244 697.622C788.095 1003.91 1006.95 930.4 1225.8 477.096" stroke="url(#paint36_linear_183_38)" stroke-width="3.5" stroke-linecap="round"/>
<path opacity="0.15" d="M-87.3105 467.907C131.541 314.764 350.392 391.335 569.244 697.622C788.095 1003.91 1006.95 927.337 1225.8 467.907" stroke="url(#paint37_linear_183_38)" stroke-width="3.5" stroke-linecap="round"/>
<path opacity="0.71" d="M-87.3105 458.718C131.541 311.701 350.392 391.335 569.244 697.622C788.095 1003.91 1006.95 924.274 1225.8 458.718" stroke="url(#paint38_linear_183_38)" stroke-width="3.5" stroke-linecap="round"/>
<path opacity="0.29" d="M-87.3105 449.53C131.541 308.638 350.392 391.335 569.244 697.622C788.095 1003.91 1006.95 921.211 1225.8 449.53" stroke="url(#paint39_linear_183_38)" stroke-width="3.5" stroke-linecap="round"/>
<path opacity="0.75" d="M-87.3105 440.341C131.541 305.575 350.392 391.335 569.244 697.622C788.095 1003.91 1006.95 918.148 1225.8 440.341" stroke="url(#paint40_linear_183_38)" stroke-width="3.5" stroke-linecap="round"/>
<path opacity="0.22" d="M-87.3105 431.153C131.541 302.512 350.392 391.335 569.244 697.622C788.095 1003.91 1006.95 915.085 1225.8 431.153" stroke="url(#paint41_linear_183_38)" stroke-width="3.5" stroke-linecap="round"/>
<path opacity="0.6" d="M-87.3105 421.964C131.541 299.449 350.392 391.335 569.244 697.622C788.095 1003.91 1006.95 912.022 1225.8 421.964" stroke="url(#paint42_linear_183_38)" stroke-width="3.5" stroke-linecap="round"/>
<path opacity="0.62" d="M-87.3105 412.775C131.541 296.387 350.392 391.335 569.244 697.622C788.095 1003.91 1006.95 908.96 1225.8 412.775" stroke="url(#paint43_linear_183_38)" stroke-width="3.5" stroke-linecap="round"/>
<path opacity="0.2" d="M-87.3105 403.587C131.541 293.324 350.392 391.335 569.244 697.622C788.095 1003.91 1006.95 905.897 1225.8 403.587" stroke="url(#paint44_linear_183_38)" stroke-width="3.5" stroke-linecap="round"/>
<path opacity="0.22" d="M-87.3105 394.398C131.541 290.261 350.392 391.335 569.244 697.622C788.095 1003.91 1006.95 902.834 1225.8 394.398" stroke="url(#paint45_linear_183_38)" stroke-width="3.5" stroke-linecap="round"/>
<path opacity="0.15" d="M-87.3105 385.21C131.541 287.198 350.392 391.335 569.244 697.622C788.095 1003.91 1006.95 899.771 1225.8 385.21" stroke="url(#paint46_linear_183_38)" stroke-width="3.5" stroke-linecap="round"/>
<path opacity="0.97" d="M-87.3105 376.021C131.541 284.135 350.392 391.335 569.244 697.622C788.095 1003.91 1006.95 896.708 1225.8 376.021" stroke="url(#paint47_linear_183_38)" stroke-width="3.5" stroke-linecap="round"/>
<path opacity="0.89" d="M-87.3105 366.832C131.541 281.072 350.392 391.335 569.244 697.622C788.095 1003.91 1006.95 893.645 1225.8 366.832" stroke="url(#paint48_linear_183_38)" stroke-width="3.5" stroke-linecap="round"/>
<path opacity="0.76" d="M-87.3105 357.644C131.541 278.009 350.392 391.335 569.244 697.622C788.095 1003.91 1006.95 890.582 1225.8 357.644" stroke="url(#paint49_linear_183_38)" stroke-width="3.5" stroke-linecap="round"/>
<path opacity="0.15" d="M-87.3105 348.455C131.541 274.947 350.392 391.335 569.244 697.622C788.095 1003.91 1006.95 887.52 1225.8 348.455" stroke="url(#paint50_linear_183_38)" stroke-width="3.5" stroke-linecap="round"/>
<path opacity="0.15" d="M-104.656 1177.53C34.6632 746.562 264.029 646.728 583.441 878.026C902.853 1109.32 1151.51 1080.45 1329.42 791.396" stroke="url(#paint51_linear_183_38)" stroke-width="3.5" stroke-linecap="round"/>
<path opacity="0.34" d="M-107.068 1168.66C33.8592 743.605 264.029 646.728 583.441 878.027C902.853 1109.33 1150.71 1077.49 1327.01 782.526" stroke="url(#paint52_linear_183_38)" stroke-width="3.5" stroke-linecap="round"/>
<path opacity="0.15" d="M-109.48 1159.79C33.0552 740.649 264.029 646.728 583.441 878.026C902.853 1109.32 1149.91 1074.54 1324.6 773.657" stroke="url(#paint53_linear_183_38)" stroke-width="3.5" stroke-linecap="round"/>
<path opacity="0.8" d="M-111.892 1150.92C32.2513 737.692 264.029 646.728 583.441 878.026C902.853 1109.32 1149.1 1071.58 1322.19 764.787" stroke="url(#paint54_linear_183_38)" stroke-width="3.5" stroke-linecap="round"/>
<path opacity="0.62" d="M-114.304 1142.05C31.4472 734.736 264.029 646.728 583.441 878.027C902.853 1109.33 1148.3 1068.62 1319.78 755.917" stroke="url(#paint55_linear_183_38)" stroke-width="3.5" stroke-linecap="round"/>
<path opacity="0.91" d="M-116.716 1133.18C30.6433 731.779 264.029 646.728 583.441 878.026C902.853 1109.32 1147.49 1065.67 1317.36 747.048" stroke="url(#paint56_linear_183_38)" stroke-width="3.5" stroke-linecap="round"/>
<path opacity="0.93" d="M-119.128 1124.31C29.8393 728.822 264.029 646.728 583.441 878.026C902.853 1109.32 1146.69 1062.71 1314.95 738.178" stroke="url(#paint57_linear_183_38)" stroke-width="3.5" stroke-linecap="round"/>
<path opacity="0.76" d="M-121.539 1115.44C29.0353 725.866 264.029 646.728 583.441 878.026C902.853 1109.33 1145.89 1059.75 1312.54 729.309" stroke="url(#paint58_linear_183_38)" stroke-width="3.5" stroke-linecap="round"/>
<path opacity="0.27" d="M-123.951 1106.57C28.2313 722.909 264.029 646.728 583.441 878.027C902.853 1109.33 1145.08 1056.8 1310.13 720.439" stroke="url(#paint59_linear_183_38)" stroke-width="3.5" stroke-linecap="round"/>
<path opacity="0.65" d="M-126.363 1097.7C27.4273 719.953 264.029 646.728 583.441 878.026C902.853 1109.33 1144.28 1053.84 1307.72 711.569" stroke="url(#paint60_linear_183_38)" stroke-width="3.5" stroke-linecap="round"/>
<path opacity="0.28" d="M-128.775 1088.83C26.6233 716.996 264.029 646.728 583.441 878.026C902.853 1109.33 1143.47 1050.88 1305.31 702.7" stroke="url(#paint61_linear_183_38)" stroke-width="3.5" stroke-linecap="round"/>
<path opacity="0.8" d="M-131.187 1079.96C25.8193 714.04 264.029 646.728 583.441 878.026C902.853 1109.32 1142.67 1047.93 1302.89 693.83" stroke="url(#paint62_linear_183_38)" stroke-width="3.5" stroke-linecap="round"/>
<path opacity="0.9" d="M-133.599 1071.09C25.0153 711.083 264.029 646.728 583.441 878.026C902.853 1109.33 1141.87 1044.97 1300.48 684.96" stroke="url(#paint63_linear_183_38)" stroke-width="3.5" stroke-linecap="round"/>
<path opacity="0.72" d="M-136.011 1062.22C24.2114 708.127 264.029 646.728 583.441 878.027C902.853 1109.33 1141.06 1042.01 1298.07 676.091" stroke="url(#paint64_linear_183_38)" stroke-width="3.5" stroke-linecap="round"/>
<path opacity="0.27" d="M-138.423 1053.35C23.4074 705.17 264.029 646.728 583.441 878.026C902.853 1109.32 1140.26 1039.06 1295.66 667.221" stroke="url(#paint65_linear_183_38)" stroke-width="3.5" stroke-linecap="round"/>
<path opacity="0.26" d="M-140.835 1044.48C22.6034 702.214 264.029 646.728 583.441 878.026C902.853 1109.33 1139.45 1036.1 1293.25 658.352" stroke="url(#paint66_linear_183_38)" stroke-width="3.5" stroke-linecap="round"/>
<path opacity="0.15" d="M-143.247 1035.61C21.7994 699.257 264.029 646.728 583.441 878.026C902.853 1109.32 1138.65 1033.14 1290.83 649.482" stroke="url(#paint67_linear_183_38)" stroke-width="3.5" stroke-linecap="round"/>
<path opacity="0.19" d="M-145.659 1026.74C20.9954 696.301 264.029 646.728 583.441 878.026C902.853 1109.33 1137.85 1030.19 1288.42 640.612" stroke="url(#paint68_linear_183_38)" stroke-width="3.5" stroke-linecap="round"/>
<path opacity="0.34" d="M-148.071 1017.87C20.1914 693.344 264.029 646.728 583.441 878.026C902.853 1109.32 1137.04 1027.23 1286.01 631.743" stroke="url(#paint69_linear_183_38)" stroke-width="3.5" stroke-linecap="round"/>
<path opacity="0.24" d="M-150.483 1009.01C19.3874 690.387 264.029 646.728 583.441 878.026C902.853 1109.32 1136.24 1024.27 1283.6 622.873" stroke="url(#paint70_linear_183_38)" stroke-width="3.5" stroke-linecap="round"/>
<path opacity="0.6" d="M-152.895 1000.14C18.5835 687.431 264.029 646.728 583.441 878.026C902.853 1109.33 1135.43 1021.32 1281.19 614.004" stroke="url(#paint71_linear_183_38)" stroke-width="3.5" stroke-linecap="round"/>
<path opacity="0.16" d="M-155.307 991.266C17.7795 684.474 264.029 646.728 583.441 878.026C902.853 1109.32 1134.63 1018.36 1278.77 605.134" stroke="url(#paint72_linear_183_38)" stroke-width="3.5" stroke-linecap="round"/>
<path opacity="0.6" d="M-157.719 982.396C16.9755 681.518 264.029 646.728 583.441 878.026C902.853 1109.33 1133.83 1015.4 1276.36 596.264" stroke="url(#paint73_linear_183_38)" stroke-width="3.5" stroke-linecap="round"/>
<path opacity="0.08" d="M-160.131 973.527C16.1715 678.561 264.029 646.728 583.441 878.026C902.853 1109.32 1133.02 1012.45 1273.95 587.395" stroke="url(#paint74_linear_183_38)" stroke-width="3.5" stroke-linecap="round"/>
<path opacity="0.84" d="M-162.543 964.657C15.3675 675.605 264.029 646.728 583.441 878.026C902.853 1109.32 1132.22 1009.49 1271.54 578.525" stroke="url(#paint75_linear_183_38)" stroke-width="3.5" stroke-linecap="round"/>
<path opacity="0.38" d="M-164.955 955.788C14.5635 672.648 264.029 646.728 583.441 878.027C902.853 1109.33 1131.41 1006.53 1269.13 569.655" stroke="url(#paint76_linear_183_38)" stroke-width="3.5" stroke-linecap="round"/>
<path opacity="0.39" d="M-167.367 946.918C13.7595 669.692 264.029 646.728 583.441 878.026C902.853 1109.32 1130.61 1003.58 1266.71 560.786" stroke="url(#paint77_linear_183_38)" stroke-width="3.5" stroke-linecap="round"/>
<path opacity="0.14" d="M-169.779 938.048C12.9555 666.735 264.029 646.728 583.441 878.026C902.853 1109.33 1129.81 1000.62 1264.3 551.916" stroke="url(#paint78_linear_183_38)" stroke-width="3.5" stroke-linecap="round"/>
<path opacity="0.88" d="M-172.191 929.179C12.1515 663.779 264.029 646.728 583.441 878.026C902.853 1109.32 1129 997.665 1261.89 543.047" stroke="url(#paint79_linear_183_38)" stroke-width="3.5" stroke-linecap="round"/>
<path opacity="0.81" d="M-174.603 920.309C11.3476 660.822 264.029 646.728 583.441 878.026C902.853 1109.32 1128.2 994.708 1259.48 534.177" stroke="url(#paint80_linear_183_38)" stroke-width="3.5" stroke-linecap="round"/>
<path opacity="0.19" d="M-177.015 911.439C10.5436 657.865 264.029 646.728 583.441 878.026C902.853 1109.32 1127.39 991.752 1257.07 525.307" stroke="url(#paint81_linear_183_38)" stroke-width="3.5" stroke-linecap="round"/>
<path opacity="0.57" d="M-179.427 902.57C9.73957 654.909 264.029 646.728 583.441 878.026C902.853 1109.32 1126.59 988.795 1254.65 516.438" stroke="url(#paint82_linear_183_38)" stroke-width="3.5" stroke-linecap="round"/>
<path opacity="0.71" d="M-181.839 893.7C8.93558 651.953 264.029 646.728 583.441 878.026C902.853 1109.33 1125.79 985.839 1252.24 507.568" stroke="url(#paint83_linear_183_38)" stroke-width="3.5" stroke-linecap="round"/>
<path opacity="0.56" d="M-184.251 884.831C8.13159 648.996 264.029 646.728 583.441 878.026C902.853 1109.33 1124.98 982.882 1249.83 498.699" stroke="url(#paint84_linear_183_38)" stroke-width="3.5" stroke-linecap="round"/>
<path opacity="0.31" d="M-186.662 875.961C7.32762 646.039 264.029 646.728 583.441 878.026C902.853 1109.32 1124.18 979.926 1247.42 489.829" stroke="url(#paint85_linear_183_38)" stroke-width="3.5" stroke-linecap="round"/>
<path opacity="0.52" d="M-189.074 867.091C6.52361 643.083 264.029 646.728 583.441 878.026C902.853 1109.33 1123.37 976.969 1245.01 480.959" stroke="url(#paint86_linear_183_38)" stroke-width="3.5" stroke-linecap="round"/>
<path opacity="0.39" d="M-191.486 858.222C5.71963 640.126 264.029 646.728 583.441 878.026C902.853 1109.32 1122.57 974.013 1242.59 472.09" stroke="url(#paint87_linear_183_38)" stroke-width="3.5" stroke-linecap="round"/>
<path opacity="0.15" d="M-193.898 849.352C4.91566 637.17 264.029 646.728 583.441 878.026C902.853 1109.33 1121.77 971.056 1240.18 463.22" stroke="url(#paint88_linear_183_38)" stroke-width="3.5" stroke-linecap="round"/>
<path opacity="0.71" d="M-196.31 840.482C4.11166 634.213 264.029 646.728 583.441 878.026C902.853 1109.32 1120.96 968.1 1237.77 454.35" stroke="url(#paint89_linear_183_38)" stroke-width="3.5" stroke-linecap="round"/>
<path opacity="0.29" d="M-198.722 831.613C3.3077 631.257 264.029 646.728 583.441 878.026C902.853 1109.32 1120.16 965.143 1235.36 445.481" stroke="url(#paint90_linear_183_38)" stroke-width="3.5" stroke-linecap="round"/>
<path opacity="0.75" d="M-201.134 822.743C2.5037 628.3 264.029 646.728 583.441 878.026C902.853 1109.32 1119.35 962.187 1232.95 436.611" stroke="url(#paint91_linear_183_38)" stroke-width="3.5" stroke-linecap="round"/>
<path opacity="0.22" d="M-203.546 813.874C1.69971 625.344 264.029 646.728 583.441 878.026C902.853 1109.32 1118.55 959.23 1230.53 427.742" stroke="url(#paint92_linear_183_38)" stroke-width="3.5" stroke-linecap="round"/>
<path opacity="0.6" d="M-205.958 805.004C0.895726 622.387 264.029 646.728 583.441 878.026C902.853 1109.32 1117.75 956.273 1228.12 418.872" stroke="url(#paint93_linear_183_38)" stroke-width="3.5" stroke-linecap="round"/>
<path opacity="0.62" d="M-208.37 796.134C0.0917222 619.43 264.029 646.728 583.441 878.026C902.853 1109.32 1116.94 953.317 1225.71 410.002" stroke="url(#paint94_linear_183_38)" stroke-width="3.5" stroke-linecap="round"/>
<path opacity="0.2" d="M-210.782 787.265C-0.712275 616.474 264.029 646.728 583.441 878.026C902.853 1109.32 1116.14 950.36 1223.3 401.133" stroke="url(#paint95_linear_183_38)" stroke-width="3.5" stroke-linecap="round"/>
<path opacity="0.22" d="M-213.194 778.395C-1.51624 613.517 264.029 646.728 583.441 878.026C902.853 1109.32 1115.33 947.404 1220.89 392.263" stroke="url(#paint96_linear_183_38)" stroke-width="3.5" stroke-linecap="round"/>
<path opacity="0.15" d="M-215.606 769.525C-2.32023 610.561 264.029 646.728 583.441 878.026C902.853 1109.32 1114.53 944.447 1218.47 383.393" stroke="url(#paint97_linear_183_38)" stroke-width="3.5" stroke-linecap="round"/>
<path opacity="0.97" d="M-218.018 760.656C-3.12419 607.604 264.029 646.728 583.441 878.026C902.853 1109.33 1113.73 941.491 1216.06 374.524" stroke="url(#paint98_linear_183_38)" stroke-width="3.5" stroke-linecap="round"/>
<path opacity="0.89" d="M-220.43 751.786C-3.92821 604.648 264.029 646.728 583.441 878.026C902.853 1109.32 1112.92 938.534 1213.65 365.654" stroke="url(#paint99_linear_183_38)" stroke-width="3.5" stroke-linecap="round"/>
<path opacity="0.76" d="M-222.842 742.917C-4.73219 601.691 264.029 646.728 583.441 878.026C902.853 1109.32 1112.12 935.578 1211.24 356.785" stroke="url(#paint100_linear_183_38)" stroke-width="3.5" stroke-linecap="round"/>
<path opacity="0.15" d="M-225.254 734.047C-5.53616 598.735 264.029 646.728 583.441 878.026C902.853 1109.32 1111.31 932.621 1208.83 347.915" stroke="url(#paint101_linear_183_38)" stroke-width="3.5" stroke-linecap="round"/>
<g filter="url(#filter0_d_183_38)">
<path d="M687.272 350.187C680.952 350.187 675.512 348.867 670.952 346.227C666.392 343.587 662.872 339.827 660.392 334.947C657.992 329.987 656.792 324.147 656.792 317.427C656.792 312.307 657.392 307.107 658.592 301.827C659.792 296.547 661.592 291.547 663.992 286.827C666.472 282.107 669.552 277.907 673.232 274.227C676.992 270.467 681.352 267.507 686.312 265.347C691.272 263.187 696.872 262.107 703.112 262.107C707.192 262.107 710.952 262.507 714.392 263.307C717.832 264.107 721.032 265.307 723.992 266.907L719.672 275.787C717.512 274.667 715.072 273.707 712.352 272.907C709.712 272.027 706.632 271.587 703.112 271.587C698.312 271.587 694.032 272.467 690.272 274.227C686.512 275.987 683.232 278.387 680.432 281.427C677.712 284.467 675.432 287.947 673.592 291.867C671.752 295.707 670.392 299.827 669.512 304.227C668.632 308.547 668.192 312.867 668.192 317.187C668.192 324.467 670.032 330.227 673.712 334.467C677.472 338.627 682.632 340.707 689.192 340.707C692.472 340.707 695.672 340.387 698.792 339.747C701.992 339.107 705.112 338.267 708.152 337.227V346.587C705.032 347.707 701.872 348.587 698.672 349.227C695.552 349.867 691.752 350.187 687.272 350.187ZM711.742 348.987L758.302 263.307H769.582L780.142 348.987H769.582L766.342 322.347H737.422L723.502 348.987H711.742ZM742.582 312.747H765.262L763.342 294.747C763.022 291.707 762.702 288.347 762.382 284.667C762.142 280.987 761.982 277.747 761.902 274.947H761.542C760.262 277.987 758.782 281.267 757.102 284.787C755.422 288.227 753.662 291.707 751.822 295.227L742.582 312.747ZM790.884 348.987L809.004 263.307H852.444L850.404 272.787H817.644L812.004 299.547H842.604L840.804 308.907H810.084L803.484 339.507H836.364L834.324 348.987H790.884ZM846.405 348.987L848.085 340.587L901.485 272.907H863.685L865.725 263.307H916.365L914.805 271.827L861.405 339.387H901.605L899.685 348.987H846.405ZM584.967 488.187C578.647 488.187 573.207 486.867 568.647 484.227C564.087 481.587 560.567 477.827 558.087 472.947C555.687 467.987 554.487 462.147 554.487 455.427C554.487 450.307 555.087 445.107 556.287 439.827C557.487 434.547 559.287 429.547 561.687 424.827C564.167 420.107 567.247 415.907 570.927 412.227C574.687 408.467 579.047 405.507 584.007 403.347C588.967 401.187 594.567 400.107 600.807 400.107C604.887 400.107 608.647 400.507 612.087 401.307C615.527 402.107 618.727 403.307 621.687 404.907L617.367 413.787C615.207 412.667 612.767 411.707 610.047 410.907C607.407 410.027 604.327 409.587 600.807 409.587C596.007 409.587 591.727 410.467 587.967 412.227C584.207 413.987 580.927 416.387 578.127 419.427C575.407 422.467 573.127 425.947 571.287 429.867C569.447 433.707 568.087 437.827 567.207 442.227C566.327 446.547 565.887 450.867 565.887 455.187C565.887 462.467 567.727 468.227 571.407 472.467C575.167 476.627 580.327 478.707 586.887 478.707C590.167 478.707 593.367 478.387 596.487 477.747C599.687 477.107 602.807 476.267 605.847 475.227V484.587C602.727 485.707 599.567 486.587 596.367 487.227C593.247 487.867 589.447 488.187 584.967 488.187ZM646.037 487.947C641.077 487.947 636.797 486.947 633.197 484.947C629.597 482.947 626.837 480.107 624.917 476.427C622.997 472.667 622.037 468.267 622.037 463.227C622.037 459.307 622.477 455.387 623.357 451.467C624.237 447.467 625.517 443.707 627.197 440.187C628.957 436.667 631.117 433.547 633.677 430.827C636.237 428.027 639.237 425.827 642.677 424.227C646.117 422.627 649.957 421.827 654.197 421.827C659.237 421.827 663.517 422.827 667.037 424.827C670.637 426.827 673.397 429.707 675.317 433.467C677.237 437.147 678.197 441.547 678.197 446.667C678.197 450.587 677.757 454.507 676.877 458.427C675.997 462.347 674.677 466.107 672.917 469.707C671.237 473.227 669.117 476.347 666.557 479.067C663.997 481.787 660.997 483.947 657.557 485.547C654.117 487.147 650.277 487.947 646.037 487.947ZM646.637 479.187C648.957 479.187 651.117 478.707 653.117 477.747C655.197 476.787 657.117 475.387 658.877 473.547C660.637 471.627 662.117 469.307 663.317 466.587C664.597 463.787 665.597 460.627 666.317 457.107C667.037 453.587 667.397 449.707 667.397 445.467C667.397 443.067 666.957 440.747 666.077 438.507C665.277 436.187 663.917 434.307 661.997 432.867C660.077 431.347 657.517 430.587 654.317 430.587C651.677 430.587 649.237 431.147 646.997 432.267C644.757 433.387 642.757 434.987 640.997 437.067C639.237 439.067 637.717 441.467 636.437 444.267C635.237 446.987 634.317 449.987 633.677 453.267C633.037 456.547 632.717 459.987 632.717 463.587C632.717 468.547 633.917 472.387 636.317 475.107C638.797 477.827 642.237 479.187 646.637 479.187ZM686.774 486.987L700.574 422.307H709.934L708.614 434.187H708.734C710.254 432.187 712.014 430.187 714.014 428.187C716.094 426.187 718.494 424.507 721.214 423.147C723.934 421.787 727.014 421.107 730.454 421.107C733.894 421.107 736.854 421.747 739.334 423.027C741.814 424.307 743.694 426.147 744.974 428.547C746.334 430.947 747.014 433.867 747.014 437.307C747.014 439.147 746.854 441.027 746.534 442.947C746.294 444.867 746.014 446.547 745.694 447.987L737.174 486.987H725.894L734.534 446.547C734.934 444.707 735.214 443.187 735.374 441.987C735.614 440.707 735.734 439.507 735.734 438.387C735.734 435.827 735.054 433.907 733.694 432.627C732.334 431.347 730.294 430.707 727.574 430.707C724.934 430.707 722.054 431.627 718.934 433.467C715.894 435.307 713.014 438.307 710.294 442.467C707.654 446.627 705.574 452.227 704.054 459.267L698.054 486.987H686.774ZM771.986 488.187C768.066 488.187 764.626 487.787 761.666 486.987C758.786 486.267 756.226 485.307 753.986 484.107V474.387C756.066 475.667 758.666 476.867 761.786 477.987C764.986 479.027 768.266 479.547 771.626 479.547C774.826 479.547 777.466 479.147 779.546 478.347C781.706 477.467 783.346 476.267 784.466 474.747C785.586 473.227 786.146 471.467 786.146 469.467C786.146 467.867 785.826 466.507 785.186 465.387C784.546 464.187 783.426 463.027 781.826 461.907C780.306 460.707 778.146 459.347 775.346 457.827C772.306 456.067 769.746 454.347 767.666 452.667C765.666 450.907 764.146 448.987 763.106 446.907C762.066 444.827 761.546 442.427 761.546 439.707C761.546 436.027 762.426 432.827 764.186 430.107C766.026 427.387 768.586 425.267 771.866 423.747C775.146 422.227 778.986 421.467 783.386 421.467C787.306 421.467 790.906 421.947 794.186 422.907C797.546 423.787 800.426 424.787 802.826 425.907L799.466 434.307C797.386 433.347 795.066 432.467 792.506 431.667C789.946 430.787 786.906 430.347 783.386 430.347C779.946 430.347 777.186 431.187 775.106 432.867C773.106 434.467 772.106 436.547 772.106 439.107C772.106 440.467 772.386 441.707 772.946 442.827C773.506 443.947 774.546 445.107 776.066 446.307C777.666 447.427 779.866 448.787 782.666 450.387C785.386 451.987 787.826 453.587 789.986 455.187C792.146 456.787 793.826 458.627 795.026 460.707C796.306 462.787 796.946 465.347 796.946 468.387C796.946 472.707 795.906 476.347 793.826 479.307C791.826 482.267 788.946 484.507 785.186 486.027C781.426 487.467 777.026 488.187 771.986 488.187ZM827.863 488.187C824.663 488.187 821.823 487.587 819.343 486.387C816.943 485.187 815.063 483.387 813.703 480.987C812.423 478.587 811.783 475.667 811.783 472.227C811.783 470.387 811.903 468.667 812.143 467.067C812.463 465.387 812.783 463.667 813.103 461.907L821.503 422.667H832.183L823.543 463.107C823.223 464.867 822.943 466.387 822.703 467.667C822.543 468.947 822.463 470.107 822.463 471.147C822.463 473.707 823.103 475.747 824.383 477.267C825.743 478.707 827.903 479.427 830.863 479.427C833.583 479.427 836.503 478.467 839.623 476.547C842.823 474.627 845.783 471.547 848.503 467.307C851.223 463.067 853.343 457.427 854.863 450.387L860.743 422.667H871.183L857.503 486.987H848.863L850.183 475.107H849.583C848.063 477.027 846.263 479.027 844.183 481.107C842.183 483.107 839.823 484.787 837.103 486.147C834.463 487.507 831.383 488.187 827.863 488.187ZM877.915 486.987L897.355 395.787H907.915L888.475 486.987H877.915ZM927.813 488.187C923.493 488.187 919.853 487.147 916.893 485.067C913.933 482.987 912.453 479.347 912.453 474.147C912.453 472.947 912.533 471.627 912.693 470.187C912.933 468.667 913.213 467.147 913.533 465.627L920.853 430.707H910.893L911.853 425.907L922.653 421.347L930.093 408.027H936.333L933.093 422.667H949.293L947.613 430.707H931.533L924.093 465.747C923.853 466.787 923.613 467.987 923.373 469.347C923.133 470.627 923.013 471.827 923.013 472.947C923.013 474.787 923.493 476.347 924.453 477.627C925.493 478.907 927.133 479.547 929.373 479.547C930.813 479.547 932.213 479.427 933.573 479.187C934.933 478.867 936.373 478.467 937.893 477.987V486.027C936.933 486.507 935.453 486.987 933.453 487.467C931.453 487.947 929.573 488.187 927.813 488.187ZM968.617 488.187C965.177 488.187 962.137 487.387 959.497 485.787C956.937 484.107 954.897 481.627 953.377 478.347C951.937 475.067 951.217 471.027 951.217 466.227C951.217 461.427 951.697 456.827 952.657 452.427C953.697 447.947 955.137 443.827 956.977 440.067C958.817 436.307 961.017 433.067 963.577 430.347C966.217 427.547 969.137 425.387 972.337 423.867C975.617 422.267 979.097 421.467 982.777 421.467C985.577 421.467 988.017 421.987 990.097 423.027C992.257 424.067 994.057 425.427 995.497 427.107C996.937 428.787 998.097 430.627 998.977 432.627H999.577L1003.42 422.667H1011.46L997.777 486.987H989.377L990.937 475.107H990.457C988.617 477.427 986.577 479.587 984.337 481.587C982.097 483.587 979.657 485.187 977.017 486.387C974.457 487.587 971.657 488.187 968.617 488.187ZM972.097 479.427C975.057 479.427 977.937 478.347 980.737 476.187C983.617 474.027 986.217 471.107 988.537 467.427C990.857 463.747 992.617 459.627 993.817 455.067C994.457 452.747 994.857 450.627 995.017 448.707C995.257 446.707 995.377 444.867 995.377 443.187C995.377 439.427 994.337 436.347 992.257 433.947C990.177 431.547 987.377 430.347 983.857 430.347C981.377 430.347 979.017 430.987 976.777 432.267C974.617 433.547 972.617 435.347 970.777 437.667C968.937 439.907 967.377 442.547 966.097 445.587C964.817 448.627 963.817 451.947 963.097 455.547C962.377 459.067 962.017 462.707 962.017 466.467C962.017 470.787 962.897 474.027 964.657 476.187C966.417 478.347 968.897 479.427 972.097 479.427ZM575.628 626.187C572.188 626.187 569.148 625.387 566.508 623.787C563.948 622.107 561.908 619.667 560.388 616.467C558.948 613.187 558.228 609.107 558.228 604.227C558.228 599.507 558.668 594.947 559.548 590.547C560.508 586.147 561.868 582.107 563.628 578.427C565.468 574.667 567.668 571.387 570.228 568.587C572.868 565.707 575.788 563.507 578.988 561.987C582.268 560.387 585.868 559.587 589.788 559.587C592.668 559.587 595.148 560.107 597.228 561.147C599.308 562.187 601.068 563.547 602.508 565.227C603.948 566.827 605.108 568.627 605.988 570.627H606.588C606.828 568.787 607.068 567.027 607.308 565.347C607.548 563.667 607.828 561.987 608.148 560.307C608.468 558.547 608.828 556.707 609.228 554.787L613.668 533.787H624.108L604.788 624.987H596.148L597.468 613.107H596.988C595.068 615.507 593.028 617.707 590.868 619.707C588.708 621.707 586.388 623.307 583.908 624.507C581.428 625.627 578.668 626.187 575.628 626.187ZM579.228 617.427C580.988 617.427 582.788 616.987 584.628 616.107C586.468 615.227 588.228 613.987 589.908 612.387C591.668 610.707 593.308 608.747 594.828 606.507C596.348 604.267 597.668 601.827 598.788 599.187C599.988 596.467 600.908 593.627 601.548 590.667C602.188 587.627 602.508 584.507 602.508 581.307C602.508 577.467 601.548 574.347 599.628 571.947C597.788 569.547 594.748 568.347 590.508 568.347C587.948 568.347 585.548 569.027 583.308 570.387C581.148 571.667 579.188 573.507 577.428 575.907C575.668 578.227 574.148 580.947 572.868 584.067C571.668 587.107 570.708 590.387 569.988 593.907C569.348 597.347 569.028 600.867 569.028 604.467C569.028 608.787 569.868 612.027 571.548 614.187C573.308 616.347 575.868 617.427 579.228 617.427ZM651.001 626.187C646.041 626.187 641.801 625.227 638.281 623.307C634.841 621.307 632.201 618.507 630.361 614.907C628.601 611.227 627.721 606.907 627.721 601.947C627.721 596.827 628.441 591.787 629.881 586.827C631.401 581.787 633.561 577.227 636.361 573.147C639.161 568.987 642.521 565.667 646.441 563.187C650.441 560.707 654.921 559.467 659.881 559.467C665.961 559.467 670.521 560.787 673.561 563.427C676.681 566.067 678.241 569.747 678.241 574.467C678.241 577.587 677.521 580.547 676.081 583.347C674.641 586.067 672.401 588.467 669.361 590.547C666.321 592.627 662.441 594.267 657.721 595.467C653.001 596.587 647.321 597.147 640.681 597.147H638.641C638.561 597.867 638.481 598.627 638.401 599.427C638.401 600.227 638.401 600.947 638.401 601.587C638.401 606.467 639.601 610.347 642.001 613.227C644.401 616.027 648.041 617.427 652.921 617.427C655.961 617.427 658.841 616.987 661.561 616.107C664.281 615.227 667.241 614.027 670.441 612.507V621.507C667.401 622.867 664.401 623.987 661.441 624.867C658.561 625.747 655.081 626.187 651.001 626.187ZM641.041 588.627C645.841 588.627 650.281 588.227 654.361 587.427C658.441 586.547 661.721 585.147 664.201 583.227C666.681 581.227 667.921 578.587 667.921 575.307C667.921 573.227 667.201 571.547 665.761 570.267C664.401 568.907 662.241 568.227 659.281 568.227C656.721 568.227 654.201 569.027 651.721 570.627C649.241 572.227 647.001 574.547 645.001 577.587C643.001 580.627 641.401 584.307 640.201 588.627H641.041ZM720.162 624.987L738.282 539.307H757.602C763.762 539.307 768.722 540.267 772.482 542.187C776.242 544.027 778.962 546.627 780.642 549.987C782.402 553.267 783.282 557.147 783.282 561.627C783.282 566.427 782.482 570.707 780.882 574.467C779.282 578.147 776.882 581.267 773.682 583.827C770.482 586.387 766.522 588.307 761.802 589.587C757.162 590.867 751.762 591.507 745.602 591.507H737.922L730.842 624.987H720.162ZM747.282 582.507C752.402 582.507 756.842 581.787 760.602 580.347C764.362 578.907 767.242 576.667 769.242 573.627C771.322 570.587 772.362 566.707 772.362 561.987C772.362 557.267 771.002 553.867 768.282 551.787C765.642 549.627 761.602 548.547 756.162 548.547H747.042L739.842 582.507H747.282ZM806.488 626.187C803.048 626.187 800.008 625.387 797.368 623.787C794.808 622.107 792.768 619.627 791.248 616.347C789.808 613.067 789.088 609.027 789.088 604.227C789.088 599.427 789.568 594.827 790.528 590.427C791.568 585.947 793.008 581.827 794.848 578.067C796.688 574.307 798.888 571.067 801.448 568.347C804.088 565.547 807.008 563.387 810.208 561.867C813.488 560.267 816.968 559.467 820.648 559.467C823.448 559.467 825.888 559.987 827.968 561.027C830.128 562.067 831.928 563.427 833.368 565.107C834.808 566.787 835.968 568.627 836.848 570.627H837.448L841.288 560.667H849.328L835.648 624.987H827.248L828.808 613.107H828.328C826.488 615.427 824.448 617.587 822.208 619.587C819.968 621.587 817.528 623.187 814.888 624.387C812.328 625.587 809.528 626.187 806.488 626.187ZM809.968 617.427C812.928 617.427 815.808 616.347 818.608 614.187C821.488 612.027 824.088 609.107 826.408 605.427C828.728 601.747 830.488 597.627 831.688 593.067C832.328 590.747 832.728 588.627 832.888 586.707C833.128 584.707 833.248 582.867 833.248 581.187C833.248 577.427 832.208 574.347 830.128 571.947C828.048 569.547 825.248 568.347 821.728 568.347C819.248 568.347 816.888 568.987 814.648 570.267C812.488 571.547 810.488 573.347 808.648 575.667C806.808 577.907 805.248 580.547 803.968 583.587C802.688 586.627 801.688 589.947 800.968 593.547C800.248 597.067 799.888 600.707 799.888 604.467C799.888 608.787 800.768 612.027 802.528 614.187C804.288 616.347 806.768 617.427 809.968 617.427ZM873.851 653.787C869.931 653.787 866.291 653.387 862.931 652.587C859.651 651.867 856.851 650.907 854.531 649.707V639.987C855.971 640.787 857.731 641.587 859.811 642.387C861.891 643.187 864.131 643.827 866.531 644.307C868.931 644.787 871.251 645.027 873.491 645.027C878.451 645.027 882.531 643.827 885.731 641.427C888.931 639.027 891.171 635.027 892.451 629.427L893.531 624.867C893.851 623.667 894.171 622.347 894.491 620.907C894.811 619.467 895.171 618.067 895.571 616.707C895.971 615.267 896.291 614.067 896.531 613.107H896.051C894.211 615.427 892.211 617.587 890.051 619.587C887.971 621.587 885.651 623.187 883.091 624.387C880.611 625.587 877.851 626.187 874.811 626.187C871.371 626.187 868.331 625.387 865.691 623.787C863.051 622.107 860.971 619.627 859.451 616.347C858.011 613.067 857.291 609.027 857.291 604.227C857.291 599.587 857.731 595.067 858.611 590.667C859.571 586.267 860.931 582.187 862.691 578.427C864.531 574.667 866.731 571.387 869.291 568.587C871.851 565.707 874.771 563.467 878.051 561.867C881.331 560.267 884.931 559.467 888.851 559.467C891.731 559.467 894.211 559.987 896.291 561.027C898.451 562.067 900.251 563.427 901.691 565.107C903.131 566.787 904.291 568.627 905.171 570.627H905.651L909.611 560.667H917.651L903.011 628.707C901.731 634.707 899.771 639.547 897.131 643.227C894.571 646.907 891.331 649.587 887.411 651.267C883.491 652.947 878.971 653.787 873.851 653.787ZM878.291 617.427C880.131 617.427 881.931 616.987 883.691 616.107C885.531 615.147 887.331 613.827 889.091 612.147C890.851 610.467 892.451 608.507 893.891 606.267C895.411 604.027 896.731 601.587 897.851 598.947C898.971 596.227 899.851 593.387 900.491 590.427C901.131 587.387 901.451 584.347 901.451 581.307C901.451 577.467 900.531 574.347 898.691 571.947C896.931 569.547 893.931 568.347 889.691 568.347C887.131 568.347 884.731 569.027 882.491 570.387C880.331 571.667 878.331 573.507 876.491 575.907C874.731 578.227 873.211 580.947 871.931 584.067C870.731 587.107 869.771 590.387 869.051 593.907C868.411 597.347 868.091 600.867 868.091 604.467C868.091 608.787 868.971 612.027 870.731 614.187C872.491 616.347 875.011 617.427 878.291 617.427ZM950.783 625.947C945.823 625.947 941.543 624.947 937.943 622.947C934.343 620.947 931.583 618.107 929.663 614.427C927.743 610.667 926.783 606.267 926.783 601.227C926.783 597.307 927.223 593.387 928.103 589.467C928.983 585.467 930.263 581.707 931.943 578.187C933.703 574.667 935.863 571.547 938.423 568.827C940.983 566.027 943.983 563.827 947.423 562.227C950.863 560.627 954.703 559.827 958.943 559.827C963.983 559.827 968.263 560.827 971.783 562.827C975.383 564.827 978.143 567.707 980.063 571.467C981.983 575.147 982.943 579.547 982.943 584.667C982.943 588.587 982.503 592.507 981.623 596.427C980.743 600.347 979.423 604.107 977.663 607.707C975.983 611.227 973.863 614.347 971.303 617.067C968.743 619.787 965.743 621.947 962.303 623.547C958.863 625.147 955.023 625.947 950.783 625.947ZM951.383 617.187C953.703 617.187 955.863 616.707 957.863 615.747C959.943 614.787 961.863 613.387 963.623 611.547C965.383 609.627 966.863 607.307 968.063 604.587C969.343 601.787 970.343 598.627 971.063 595.107C971.783 591.587 972.143 587.707 972.143 583.467C972.143 581.067 971.703 578.747 970.823 576.507C970.023 574.187 968.663 572.307 966.743 570.867C964.823 569.347 962.263 568.587 959.063 568.587C956.423 568.587 953.983 569.147 951.743 570.267C949.503 571.387 947.503 572.987 945.743 575.067C943.983 577.067 942.463 579.467 941.183 582.267C939.983 584.987 939.063 587.987 938.423 591.267C937.783 594.547 937.463 597.987 937.463 601.587C937.463 606.547 938.663 610.387 941.063 613.107C943.543 615.827 946.983 617.187 951.383 617.187ZM1007.24 626.187C1003.32 626.187 999.88 625.787 996.92 624.987C994.04 624.267 991.48 623.307 989.24 622.107V612.387C991.32 613.667 993.92 614.867 997.04 615.987C1000.24 617.027 1003.52 617.547 1006.88 617.547C1010.08 617.547 1012.72 617.147 1014.8 616.347C1016.96 615.467 1018.6 614.267 1019.72 612.747C1020.84 611.227 1021.4 609.467 1021.4 607.467C1021.4 605.867 1021.08 604.507 1020.44 603.387C1019.8 602.187 1018.68 601.027 1017.08 599.907C1015.56 598.707 1013.4 597.347 1010.6 595.827C1007.56 594.067 1005 592.347 1002.92 590.667C1000.92 588.907 999.4 586.987 998.36 584.907C997.32 582.827 996.8 580.427 996.8 577.707C996.8 574.027 997.68 570.827 999.44 568.107C1001.28 565.387 1003.84 563.267 1007.12 561.747C1010.4 560.227 1014.24 559.467 1018.64 559.467C1022.56 559.467 1026.16 559.947 1029.44 560.907C1032.8 561.787 1035.68 562.787 1038.08 563.907L1034.72 572.307C1032.64 571.347 1030.32 570.467 1027.76 569.667C1025.2 568.787 1022.16 568.347 1018.64 568.347C1015.2 568.347 1012.44 569.187 1010.36 570.867C1008.36 572.467 1007.36 574.547 1007.36 577.107C1007.36 578.467 1007.64 579.707 1008.2 580.827C1008.76 581.947 1009.8 583.107 1011.32 584.307C1012.92 585.427 1015.12 586.787 1017.92 588.387C1020.64 589.987 1023.08 591.587 1025.24 593.187C1027.4 594.787 1029.08 596.627 1030.28 598.707C1031.56 600.787 1032.2 603.347 1032.2 606.387C1032.2 610.707 1031.16 614.347 1029.08 617.307C1027.08 620.267 1024.2 622.507 1020.44 624.027C1016.68 625.467 1012.28 626.187 1007.24 626.187Z" fill="#080820"/>
</g>
</g>
<defs>
<filter id="filter0_d_183_38" x="550.487" y="262.107" width="491.593" height="399.68" filterUnits="userSpaceOnUse" color-interpolation-filters="sRGB">
<feFlood flood-opacity="0" result="BackgroundImageFix"/>
<feColorMatrix in="SourceAlpha" type="matrix" values="0 0 0 0 0 0 0 0 0 0 0 0 0 0 0 0 0 0 127 0" result="hardAlpha"/>
<feOffset dy="4"/>
<feGaussianBlur stdDeviation="2"/>
<feComposite in2="hardAlpha" operator="out"/>
<feColorMatrix type="matrix" values="0 0 0 0 0 0 0 0 0 0 0 0 0 0 0 0 0 0 0.25 0"/>
<feBlend mode="normal" in2="BackgroundImageFix" result="effect1_dropShadow_183_38"/>
<feBlend mode="normal" in="SourceGraphic" in2="effect1_dropShadow_183_38" result="shape"/>
</filter>
<linearGradient id="paint0_linear_183_38" x1="65568.1" y1="492.519" x2="65568.1" y2="47106.7" gradientUnits="userSpaceOnUse">
<stop stop-color="#080820"/>
<stop offset="1" stop-color="#4D51B3"/>
</linearGradient>
<linearGradient id="paint1_linear_183_38" x1="65568.1" y1="490.672" x2="65568.1" y2="46996.4" gradientUnits="userSpaceOnUse">
<stop stop-color="#080820"/>
<stop offset="1" stop-color="#4D51B3"/>
</linearGradient>
<linearGradient id="paint2_linear_183_38" x1="65568.1" y1="488.79" x2="65568.1" y2="46895.8" gradientUnits="userSpaceOnUse">
<stop stop-color="#080820"/>
<stop offset="1" stop-color="#4D51B3"/>
</linearGradient>
<linearGradient id="paint3_linear_183_38" x1="65568.1" y1="486.874" x2="65568.1" y2="46805" gradientUnits="userSpaceOnUse">
<stop stop-color="#080820"/>
<stop offset="1" stop-color="#4D51B3"/>
</linearGradient>
<linearGradient id="paint4_linear_183_38" x1="65568.1" y1="484.923" x2="65568.1" y2="46723.8" gradientUnits="userSpaceOnUse">
<stop stop-color="#080820"/>
<stop offset="1" stop-color="#4D51B3"/>
</linearGradient>
<linearGradient id="paint5_linear_183_38" x1="65568.1" y1="482.935" x2="65568.1" y2="46652.1" gradientUnits="userSpaceOnUse">
<stop stop-color="#080820"/>
<stop offset="1" stop-color="#4D51B3"/>
</linearGradient>
<linearGradient id="paint6_linear_183_38" x1="65568.1" y1="480.91" x2="65568.1" y2="46589.9" gradientUnits="userSpaceOnUse">
<stop stop-color="#080820"/>
<stop offset="1" stop-color="#4D51B3"/>
</linearGradient>
<linearGradient id="paint7_linear_183_38" x1="65568.1" y1="478.846" x2="65568.1" y2="46537" gradientUnits="userSpaceOnUse">
<stop stop-color="#080820"/>
<stop offset="1" stop-color="#4D51B3"/>
</linearGradient>
<linearGradient id="paint8_linear_183_38" x1="65568.1" y1="476.742" x2="65568.1" y2="46493.4" gradientUnits="userSpaceOnUse">
<stop stop-color="#080820"/>
<stop offset="1" stop-color="#4D51B3"/>
</linearGradient>
<linearGradient id="paint9_linear_183_38" x1="65568.1" y1="474.598" x2="65568.1" y2="46459" gradientUnits="userSpaceOnUse">
<stop stop-color="#080820"/>
<stop offset="1" stop-color="#4D51B3"/>
</linearGradient>
<linearGradient id="paint10_linear_183_38" x1="65568.1" y1="472.411" x2="65568.1" y2="46433.8" gradientUnits="userSpaceOnUse">
<stop stop-color="#080820"/>
<stop offset="1" stop-color="#4D51B3"/>
</linearGradient>
<linearGradient id="paint11_linear_183_38" x1="65568.1" y1="470.181" x2="65568.1" y2="46417.8" gradientUnits="userSpaceOnUse">
<stop stop-color="#080820"/>
<stop offset="1" stop-color="#4D51B3"/>
</linearGradient>
<linearGradient id="paint12_linear_183_38" x1="65568.1" y1="467.907" x2="65568.1" y2="46410.9" gradientUnits="userSpaceOnUse">
<stop stop-color="#080820"/>
<stop offset="1" stop-color="#4D51B3"/>
</linearGradient>
<linearGradient id="paint13_linear_183_38" x1="65568.1" y1="465.587" x2="65568.1" y2="46413.2" gradientUnits="userSpaceOnUse">
<stop stop-color="#080820"/>
<stop offset="1" stop-color="#4D51B3"/>
</linearGradient>
<linearGradient id="paint14_linear_183_38" x1="65568.1" y1="463.219" x2="65568.1" y2="46424.6" gradientUnits="userSpaceOnUse">
<stop stop-color="#080820"/>
<stop offset="1" stop-color="#4D51B3"/>
</linearGradient>
<linearGradient id="paint15_linear_183_38" x1="65568.1" y1="460.802" x2="65568.1" y2="46445.2" gradientUnits="userSpaceOnUse">
<stop stop-color="#080820"/>
<stop offset="1" stop-color="#4D51B3"/>
</linearGradient>
<linearGradient id="paint16_linear_183_38" x1="65568.1" y1="458.336" x2="65568.1" y2="46474.9" gradientUnits="userSpaceOnUse">
<stop stop-color="#080820"/>
<stop offset="1" stop-color="#4D51B3"/>
</linearGradient>
<linearGradient id="paint17_linear_183_38" x1="65568.1" y1="455.817" x2="65568.1" y2="46513.9" gradientUnits="userSpaceOnUse">
<stop stop-color="#080820"/>
<stop offset="1" stop-color="#4D51B3"/>
</linearGradient>
<linearGradient id="paint18_linear_183_38" x1="65568.1" y1="453.244" x2="65568.1" y2="46562.2" gradientUnits="userSpaceOnUse">
<stop stop-color="#080820"/>
<stop offset="1" stop-color="#4D51B3"/>
</linearGradient>
<linearGradient id="paint19_linear_183_38" x1="65568.1" y1="450.617" x2="65568.1" y2="46619.8" gradientUnits="userSpaceOnUse">
<stop stop-color="#080820"/>
<stop offset="1" stop-color="#4D51B3"/>
</linearGradient>
<linearGradient id="paint20_linear_183_38" x1="65568.1" y1="447.932" x2="65568.1" y2="46686.8" gradientUnits="userSpaceOnUse">
<stop stop-color="#080820"/>
<stop offset="1" stop-color="#4D51B3"/>
</linearGradient>
<linearGradient id="paint21_linear_183_38" x1="65568.1" y1="445.188" x2="65568.1" y2="46763.4" gradientUnits="userSpaceOnUse">
<stop stop-color="#080820"/>
<stop offset="1" stop-color="#4D51B3"/>
</linearGradient>
<linearGradient id="paint22_linear_183_38" x1="65568.1" y1="442.383" x2="65568.1" y2="46849.4" gradientUnits="userSpaceOnUse">
<stop stop-color="#080820"/>
<stop offset="1" stop-color="#4D51B3"/>
</linearGradient>
<linearGradient id="paint23_linear_183_38" x1="65568.1" y1="439.515" x2="65568.1" y2="46945.2" gradientUnits="userSpaceOnUse">
<stop stop-color="#080820"/>
<stop offset="1" stop-color="#4D51B3"/>
</linearGradient>
<linearGradient id="paint24_linear_183_38" x1="65568.1" y1="436.582" x2="65568.1" y2="47050.8" gradientUnits="userSpaceOnUse">
<stop stop-color="#080820"/>
<stop offset="1" stop-color="#4D51B3"/>
</linearGradient>
<linearGradient id="paint25_linear_183_38" x1="65568.1" y1="433.582" x2="65568.1" y2="47166.3" gradientUnits="userSpaceOnUse">
<stop stop-color="#080820"/>
<stop offset="1" stop-color="#4D51B3"/>
</linearGradient>
<linearGradient id="paint26_linear_183_38" x1="65568.1" y1="430.512" x2="65568.1" y2="47292" gradientUnits="userSpaceOnUse">
<stop stop-color="#080820"/>
<stop offset="1" stop-color="#4D51B3"/>
</linearGradient>
<linearGradient id="paint27_linear_183_38" x1="65568.1" y1="427.369" x2="65568.1" y2="47427.9" gradientUnits="userSpaceOnUse">
<stop stop-color="#080820"/>
<stop offset="1" stop-color="#4D51B3"/>
</linearGradient>
<linearGradient id="paint28_linear_183_38" x1="65568.1" y1="424.152" x2="65568.1" y2="47574.2" gradientUnits="userSpaceOnUse">
<stop stop-color="#080820"/>
<stop offset="1" stop-color="#4D51B3"/>
</linearGradient>
<linearGradient id="paint29_linear_183_38" x1="65568.1" y1="420.857" x2="65568.1" y2="47731.1" gradientUnits="userSpaceOnUse">
<stop stop-color="#080820"/>
<stop offset="1" stop-color="#4D51B3"/>
</linearGradient>
<linearGradient id="paint30_linear_183_38" x1="65568.1" y1="417.482" x2="65568.1" y2="47898.9" gradientUnits="userSpaceOnUse">
<stop stop-color="#080820"/>
<stop offset="1" stop-color="#4D51B3"/>
</linearGradient>
<linearGradient id="paint31_linear_183_38" x1="65568.1" y1="414.023" x2="65568.1" y2="48077.7" gradientUnits="userSpaceOnUse">
<stop stop-color="#080820"/>
<stop offset="1" stop-color="#4D51B3"/>
</linearGradient>
<linearGradient id="paint32_linear_183_38" x1="65568.1" y1="410.478" x2="65568.1" y2="48267.8" gradientUnits="userSpaceOnUse">
<stop stop-color="#080820"/>
<stop offset="1" stop-color="#4D51B3"/>
</linearGradient>
<linearGradient id="paint33_linear_183_38" x1="65568.1" y1="406.844" x2="65568.1" y2="48469.4" gradientUnits="userSpaceOnUse">
<stop stop-color="#080820"/>
<stop offset="1" stop-color="#4D51B3"/>
</linearGradient>
<linearGradient id="paint34_linear_183_38" x1="65568.1" y1="403.116" x2="65568.1" y2="48682.8" gradientUnits="userSpaceOnUse">
<stop stop-color="#080820"/>
<stop offset="1" stop-color="#4D51B3"/>
</linearGradient>
<linearGradient id="paint35_linear_183_38" x1="65568.1" y1="399.291" x2="65568.1" y2="48908.4" gradientUnits="userSpaceOnUse">
<stop stop-color="#080820"/>
<stop offset="1" stop-color="#4D51B3"/>
</linearGradient>
<linearGradient id="paint36_linear_183_38" x1="65568.1" y1="395.365" x2="65568.1" y2="49146.4" gradientUnits="userSpaceOnUse">
<stop stop-color="#080820"/>
<stop offset="1" stop-color="#4D51B3"/>
</linearGradient>
<linearGradient id="paint37_linear_183_38" x1="65568.1" y1="391.335" x2="65568.1" y2="49397.2" gradientUnits="userSpaceOnUse">
<stop stop-color="#080820"/>
<stop offset="1" stop-color="#4D51B3"/>
</linearGradient>
<linearGradient id="paint38_linear_183_38" x1="65568.1" y1="387.196" x2="65568.1" y2="49661.1" gradientUnits="userSpaceOnUse">
<stop stop-color="#080820"/>
<stop offset="1" stop-color="#4D51B3"/>
</linearGradient>
<linearGradient id="paint39_linear_183_38" x1="65568.1" y1="382.944" x2="65568.1" y2="49938.5" gradientUnits="userSpaceOnUse">
<stop stop-color="#080820"/>
<stop offset="1" stop-color="#4D51B3"/>
</linearGradient>
<linearGradient id="paint40_linear_183_38" x1="65568.1" y1="378.573" x2="65568.1" y2="50229.9" gradientUnits="userSpaceOnUse">
<stop stop-color="#080820"/>
<stop offset="1" stop-color="#4D51B3"/>
</linearGradient>
<linearGradient id="paint41_linear_183_38" x1="65568.1" y1="374.08" x2="65568.1" y2="50535.7" gradientUnits="userSpaceOnUse">
<stop stop-color="#080820"/>
<stop offset="1" stop-color="#4D51B3"/>
</linearGradient>
<linearGradient id="paint42_linear_183_38" x1="65568.1" y1="369.458" x2="65568.1" y2="50856.3" gradientUnits="userSpaceOnUse">
<stop stop-color="#080820"/>
<stop offset="1" stop-color="#4D51B3"/>
</linearGradient>
<linearGradient id="paint43_linear_183_38" x1="65568.1" y1="364.702" x2="65568.1" y2="51192.2" gradientUnits="userSpaceOnUse">
<stop stop-color="#080820"/>
<stop offset="1" stop-color="#4D51B3"/>
</linearGradient>
<linearGradient id="paint44_linear_183_38" x1="65568.1" y1="359.806" x2="65568.1" y2="51544.1" gradientUnits="userSpaceOnUse">
<stop stop-color="#080820"/>
<stop offset="1" stop-color="#4D51B3"/>
</linearGradient>
<linearGradient id="paint45_linear_183_38" x1="65568.1" y1="354.764" x2="65568.1" y2="51912.4" gradientUnits="userSpaceOnUse">
<stop stop-color="#080820"/>
<stop offset="1" stop-color="#4D51B3"/>
</linearGradient>
<linearGradient id="paint46_linear_183_38" x1="65568.1" y1="349.569" x2="65568.1" y2="52297.8" gradientUnits="userSpaceOnUse">
<stop stop-color="#080820"/>
<stop offset="1" stop-color="#4D51B3"/>
</linearGradient>
<linearGradient id="paint47_linear_183_38" x1="65568.1" y1="344.214" x2="65568.1" y2="52700.9" gradientUnits="userSpaceOnUse">
<stop stop-color="#080820"/>
<stop offset="1" stop-color="#4D51B3"/>
</linearGradient>
<linearGradient id="paint48_linear_183_38" x1="65568.1" y1="338.692" x2="65568.1" y2="53122.5" gradientUnits="userSpaceOnUse">
<stop stop-color="#080820"/>
<stop offset="1" stop-color="#4D51B3"/>
</linearGradient>
<linearGradient id="paint49_linear_183_38" x1="65568.1" y1="332.995" x2="65568.1" y2="53563.2" gradientUnits="userSpaceOnUse">
<stop stop-color="#080820"/>
<stop offset="1" stop-color="#4D51B3"/>
</linearGradient>
<linearGradient id="paint50_linear_183_38" x1="65568.1" y1="327.114" x2="65568.1" y2="54023.9" gradientUnits="userSpaceOnUse">
<stop stop-color="#080820"/>
<stop offset="1" stop-color="#4D51B3"/>
</linearGradient>
<linearGradient id="paint51_linear_183_38" x1="71516.6" y1="-18433.5" x2="83640.1" y2="26592.8" gradientUnits="userSpaceOnUse">
<stop stop-color="#081A20"/>
<stop offset="1" stop-color="#4D51B3"/>
</linearGradient>
<linearGradient id="paint52_linear_183_38" x1="71516.1" y1="-18435.3" x2="83611.4" y2="26486.2" gradientUnits="userSpaceOnUse">
<stop stop-color="#081A20"/>
<stop offset="1" stop-color="#4D51B3"/>
</linearGradient>
<linearGradient id="paint53_linear_183_38" x1="71515.6" y1="-18437.1" x2="83585.2" y2="26389.1" gradientUnits="userSpaceOnUse">
<stop stop-color="#081A20"/>
<stop offset="1" stop-color="#4D51B3"/>
</linearGradient>
<linearGradient id="paint54_linear_183_38" x1="71515.1" y1="-18438.9" x2="83561.6" y2="26301.4" gradientUnits="userSpaceOnUse">
<stop stop-color="#081A20"/>
<stop offset="1" stop-color="#4D51B3"/>
</linearGradient>
<linearGradient id="paint55_linear_183_38" x1="71514.6" y1="-18440.8" x2="83540.5" y2="26223" gradientUnits="userSpaceOnUse">
<stop stop-color="#081A20"/>
<stop offset="1" stop-color="#4D51B3"/>
</linearGradient>
<linearGradient id="paint56_linear_183_38" x1="71514.1" y1="-18442.7" x2="83521.8" y2="26153.7" gradientUnits="userSpaceOnUse">
<stop stop-color="#081A20"/>
<stop offset="1" stop-color="#4D51B3"/>
</linearGradient>
<linearGradient id="paint57_linear_183_38" x1="71513.5" y1="-18444.7" x2="83505.6" y2="26093.6" gradientUnits="userSpaceOnUse">
<stop stop-color="#081A20"/>
<stop offset="1" stop-color="#4D51B3"/>
</linearGradient>
<linearGradient id="paint58_linear_183_38" x1="71513" y1="-18446.7" x2="83491.9" y2="26042.5" gradientUnits="userSpaceOnUse">
<stop stop-color="#081A20"/>
<stop offset="1" stop-color="#4D51B3"/>
</linearGradient>
<linearGradient id="paint59_linear_183_38" x1="71512.4" y1="-18448.7" x2="83480.5" y2="26000.3" gradientUnits="userSpaceOnUse">
<stop stop-color="#081A20"/>
<stop offset="1" stop-color="#4D51B3"/>
</linearGradient>
<linearGradient id="paint60_linear_183_38" x1="71511.9" y1="-18450.8" x2="83471.6" y2="25967.1" gradientUnits="userSpaceOnUse">
<stop stop-color="#081A20"/>
<stop offset="1" stop-color="#4D51B3"/>
</linearGradient>
<linearGradient id="paint61_linear_183_38" x1="71511.3" y1="-18452.9" x2="83465" y2="25942.8" gradientUnits="userSpaceOnUse">
<stop stop-color="#081A20"/>
<stop offset="1" stop-color="#4D51B3"/>
</linearGradient>
<linearGradient id="paint62_linear_183_38" x1="71510.7" y1="-18455.1" x2="83460.9" y2="25927.3" gradientUnits="userSpaceOnUse">
<stop stop-color="#081A20"/>
<stop offset="1" stop-color="#4D51B3"/>
</linearGradient>
<linearGradient id="paint63_linear_183_38" x1="71510.1" y1="-18457.2" x2="83459.1" y2="25920.7" gradientUnits="userSpaceOnUse">
<stop stop-color="#081A20"/>
<stop offset="1" stop-color="#4D51B3"/>
</linearGradient>
<linearGradient id="paint64_linear_183_38" x1="71509.5" y1="-18459.5" x2="83459.6" y2="25922.9" gradientUnits="userSpaceOnUse">
<stop stop-color="#081A20"/>
<stop offset="1" stop-color="#4D51B3"/>
</linearGradient>
<linearGradient id="paint65_linear_183_38" x1="71508.9" y1="-18461.8" x2="83462.6" y2="25933.9" gradientUnits="userSpaceOnUse">
<stop stop-color="#081A20"/>
<stop offset="1" stop-color="#4D51B3"/>
</linearGradient>
<linearGradient id="paint66_linear_183_38" x1="71508.3" y1="-18464.1" x2="83468" y2="25953.8" gradientUnits="userSpaceOnUse">
<stop stop-color="#081A20"/>
<stop offset="1" stop-color="#4D51B3"/>
</linearGradient>
<linearGradient id="paint67_linear_183_38" x1="71507.6" y1="-18466.5" x2="83475.7" y2="25982.6" gradientUnits="userSpaceOnUse">
<stop stop-color="#081A20"/>
<stop offset="1" stop-color="#4D51B3"/>
</linearGradient>
<linearGradient id="paint68_linear_183_38" x1="71506.9" y1="-18468.9" x2="83485.8" y2="26020.2" gradientUnits="userSpaceOnUse">
<stop stop-color="#081A20"/>
<stop offset="1" stop-color="#4D51B3"/>
</linearGradient>
<linearGradient id="paint69_linear_183_38" x1="71506.3" y1="-18471.4" x2="83498.4" y2="26066.9" gradientUnits="userSpaceOnUse">
<stop stop-color="#081A20"/>
<stop offset="1" stop-color="#4D51B3"/>
</linearGradient>
<linearGradient id="paint70_linear_183_38" x1="71505.6" y1="-18473.9" x2="83513.4" y2="26122.5" gradientUnits="userSpaceOnUse">
<stop stop-color="#081A20"/>
<stop offset="1" stop-color="#4D51B3"/>
</linearGradient>
<linearGradient id="paint71_linear_183_38" x1="71504.9" y1="-18476.5" x2="83530.8" y2="26187.3" gradientUnits="userSpaceOnUse">
<stop stop-color="#081A20"/>
<stop offset="1" stop-color="#4D51B3"/>
</linearGradient>
<linearGradient id="paint72_linear_183_38" x1="71504.2" y1="-18479.2" x2="83550.7" y2="26261.2" gradientUnits="userSpaceOnUse">
<stop stop-color="#081A20"/>
<stop offset="1" stop-color="#4D51B3"/>
</linearGradient>
<linearGradient id="paint73_linear_183_38" x1="71503.4" y1="-18481.9" x2="83573.1" y2="26344.3" gradientUnits="userSpaceOnUse">
<stop stop-color="#081A20"/>
<stop offset="1" stop-color="#4D51B3"/>
</linearGradient>
<linearGradient id="paint74_linear_183_38" x1="71502.7" y1="-18484.7" x2="83598" y2="26436.8" gradientUnits="userSpaceOnUse">
<stop stop-color="#081A20"/>
<stop offset="1" stop-color="#4D51B3"/>
</linearGradient>
<linearGradient id="paint75_linear_183_38" x1="71501.9" y1="-18487.5" x2="83625.4" y2="26538.8" gradientUnits="userSpaceOnUse">
<stop stop-color="#081A20"/>
<stop offset="1" stop-color="#4D51B3"/>
</linearGradient>
<linearGradient id="paint76_linear_183_38" x1="71501.1" y1="-18490.4" x2="83655.5" y2="26650.4" gradientUnits="userSpaceOnUse">
<stop stop-color="#081A20"/>
<stop offset="1" stop-color="#4D51B3"/>
</linearGradient>
<linearGradient id="paint77_linear_183_38" x1="71500.3" y1="-18493.3" x2="83688.1" y2="26771.8" gradientUnits="userSpaceOnUse">
<stop stop-color="#081A20"/>
<stop offset="1" stop-color="#4D51B3"/>
</linearGradient>
<linearGradient id="paint78_linear_183_38" x1="71499.5" y1="-18496.4" x2="83723.5" y2="26903" gradientUnits="userSpaceOnUse">
<stop stop-color="#081A20"/>
<stop offset="1" stop-color="#4D51B3"/>
</linearGradient>
<linearGradient id="paint79_linear_183_38" x1="71498.6" y1="-18499.5" x2="83761.5" y2="27044.4" gradientUnits="userSpaceOnUse">
<stop stop-color="#081A20"/>
<stop offset="1" stop-color="#4D51B3"/>
</linearGradient>
<linearGradient id="paint80_linear_183_38" x1="71497.8" y1="-18502.7" x2="83802.3" y2="27196" gradientUnits="userSpaceOnUse">
<stop stop-color="#081A20"/>
<stop offset="1" stop-color="#4D51B3"/>
</linearGradient>
<linearGradient id="paint81_linear_183_38" x1="71496.9" y1="-18505.9" x2="83845.9" y2="27358" gradientUnits="userSpaceOnUse">
<stop stop-color="#081A20"/>
<stop offset="1" stop-color="#4D51B3"/>
</linearGradient>
<linearGradient id="paint82_linear_183_38" x1="71496" y1="-18509.3" x2="83892.4" y2="27530.7" gradientUnits="userSpaceOnUse">
<stop stop-color="#081A20"/>
<stop offset="1" stop-color="#4D51B3"/>
</linearGradient>
<linearGradient id="paint83_linear_183_38" x1="71495" y1="-18512.7" x2="83941.9" y2="27714.3" gradientUnits="userSpaceOnUse">
<stop stop-color="#081A20"/>
<stop offset="1" stop-color="#4D51B3"/>
</linearGradient>
<linearGradient id="paint84_linear_183_38" x1="71494.1" y1="-18516.2" x2="83994.3" y2="27909.1" gradientUnits="userSpaceOnUse">
<stop stop-color="#081A20"/>
<stop offset="1" stop-color="#4D51B3"/>
</linearGradient>
<linearGradient id="paint85_linear_183_38" x1="71493.1" y1="-18519.8" x2="84049.8" y2="28115.3" gradientUnits="userSpaceOnUse">
<stop stop-color="#081A20"/>
<stop offset="1" stop-color="#4D51B3"/>
</linearGradient>
<linearGradient id="paint86_linear_183_38" x1="71492.1" y1="-18523.5" x2="84108.5" y2="28333.2" gradientUnits="userSpaceOnUse">
<stop stop-color="#081A20"/>
<stop offset="1" stop-color="#4D51B3"/>
</linearGradient>
<linearGradient id="paint87_linear_183_38" x1="71491.1" y1="-18527.3" x2="84170.3" y2="28563.1" gradientUnits="userSpaceOnUse">
<stop stop-color="#081A20"/>
<stop offset="1" stop-color="#4D51B3"/>
</linearGradient>
<linearGradient id="paint88_linear_183_38" x1="71490" y1="-18531.2" x2="84235.6" y2="28805.3" gradientUnits="userSpaceOnUse">
<stop stop-color="#081A20"/>
<stop offset="1" stop-color="#4D51B3"/>
</linearGradient>
<linearGradient id="paint89_linear_183_38" x1="71488.9" y1="-18535.2" x2="84304.2" y2="29060.2" gradientUnits="userSpaceOnUse">
<stop stop-color="#081A20"/>
<stop offset="1" stop-color="#4D51B3"/>
</linearGradient>
<linearGradient id="paint90_linear_183_38" x1="71487.8" y1="-18539.3" x2="84376.3" y2="29328.2" gradientUnits="userSpaceOnUse">
<stop stop-color="#081A20"/>
<stop offset="1" stop-color="#4D51B3"/>
</linearGradient>
<linearGradient id="paint91_linear_183_38" x1="71486.7" y1="-18543.5" x2="84452.1" y2="29609.7" gradientUnits="userSpaceOnUse">
<stop stop-color="#081A20"/>
<stop offset="1" stop-color="#4D51B3"/>
</linearGradient>
<linearGradient id="paint92_linear_183_38" x1="71485.5" y1="-18547.8" x2="84531.6" y2="29905" gradientUnits="userSpaceOnUse">
<stop stop-color="#081A20"/>
<stop offset="1" stop-color="#4D51B3"/>
</linearGradient>
<linearGradient id="paint93_linear_183_38" x1="71484.3" y1="-18552.3" x2="84615" y2="30214.7" gradientUnits="userSpaceOnUse">
<stop stop-color="#081A20"/>
<stop offset="1" stop-color="#4D51B3"/>
</linearGradient>
<linearGradient id="paint94_linear_183_38" x1="71483" y1="-18556.9" x2="84702.3" y2="30539.2" gradientUnits="userSpaceOnUse">
<stop stop-color="#081A20"/>
<stop offset="1" stop-color="#4D51B3"/>
</linearGradient>
<linearGradient id="paint95_linear_183_38" x1="71481.7" y1="-18561.6" x2="84793.8" y2="30879.1" gradientUnits="userSpaceOnUse">
<stop stop-color="#081A20"/>
<stop offset="1" stop-color="#4D51B3"/>
</linearGradient>
<linearGradient id="paint96_linear_183_38" x1="71480.4" y1="-18566.5" x2="84889.6" y2="31234.8" gradientUnits="userSpaceOnUse">
<stop stop-color="#081A20"/>
<stop offset="1" stop-color="#4D51B3"/>
</linearGradient>
<linearGradient id="paint97_linear_183_38" x1="71479.1" y1="-18571.5" x2="84989.8" y2="31607.1" gradientUnits="userSpaceOnUse">
<stop stop-color="#081A20"/>
<stop offset="1" stop-color="#4D51B3"/>
</linearGradient>
<linearGradient id="paint98_linear_183_38" x1="71477.7" y1="-18576.6" x2="85094.7" y2="31996.5" gradientUnits="userSpaceOnUse">
<stop stop-color="#081A20"/>
<stop offset="1" stop-color="#4D51B3"/>
</linearGradient>
<linearGradient id="paint99_linear_183_38" x1="71476.2" y1="-18582" x2="85204.3" y2="32403.7" gradientUnits="userSpaceOnUse">
<stop stop-color="#081A20"/>
<stop offset="1" stop-color="#4D51B3"/>
</linearGradient>
<linearGradient id="paint100_linear_183_38" x1="71474.7" y1="-18587.5" x2="85318.9" y2="32829.4" gradientUnits="userSpaceOnUse">
<stop stop-color="#081A20"/>
<stop offset="1" stop-color="#4D51B3"/>
</linearGradient>
<linearGradient id="paint101_linear_183_38" x1="71473.2" y1="-18593.2" x2="85438.7" y2="33274.5" gradientUnits="userSpaceOnUse">
<stop stop-color="#081A20"/>
<stop offset="1" stop-color="#4D51B3"/>
</linearGradient>
<clipPath id="clip0_183_38">
<rect width="1230" height="1257" fill="white"/>
</clipPath>
</defs>
</svg>
