<svg id="visual" viewBox="0 0 500 540" width="500" height="540" xmlns="http://www.w3.org/2000/svg" xmlns:xlink="http://www.w3.org/1999/xlink" version="1.1"><rect x="0" y="0" width="500" height="540" fill="#fff"></rect><path d="M349 0L351 0L351 77L344 77L344 154L268 154L268 231L258 231L258 309L345 309L345 386L345 386L345 463L290 463L290 540L0 540L0 463L0 463L0 386L0 386L0 309L0 309L0 231L0 231L0 154L0 154L0 77L0 77L0 0L0 0Z" fill="#080820"></path><path d="M242 0L272 0L272 77L259 77L259 154L251 154L251 231L245 231L245 309L226 309L226 386L217 386L217 463L232 463L232 540L0 540L0 463L0 463L0 386L0 386L0 309L0 309L0 231L0 231L0 154L0 154L0 77L0 77L0 0L0 0Z" fill="#0c1237"></path><path d="M177 0L194 0L194 77L211 77L211 154L196 154L196 231L244 231L244 309L213 309L213 386L210 386L210 463L194 463L194 540L0 540L0 463L0 463L0 386L0 386L0 309L0 309L0 231L0 231L0 154L0 154L0 77L0 77L0 0L0 0Z" fill="#15164f"></path><path d="M136 0L188 0L188 77L173 77L173 154L170 154L170 231L170 231L170 309L160 309L160 386L155 386L155 463L135 463L135 540L0 540L0 463L0 463L0 386L0 386L0 309L0 309L0 231L0 231L0 154L0 154L0 77L0 77L0 0L0 0Z" fill="#251766"></path><path d="M94 0L139 0L139 77L120 77L120 154L115 154L115 231L129 231L129 309L116 309L116 386L134 386L134 463L101 463L101 540L0 540L0 463L0 463L0 386L0 386L0 309L0 309L0 231L0 231L0 154L0 154L0 77L0 77L0 0L0 0Z" fill="#3b137c"></path><path d="M77 0L73 0L73 77L33 77L33 154L60 154L60 231L74 231L74 309L41 309L41 386L66 386L66 463L34 463L34 540L0 540L0 463L0 463L0 386L0 386L0 309L0 309L0 231L0 231L0 154L0 154L0 77L0 77L0 0L0 0Z" fill="#560090"></path></svg>