<svg width="615" height="629" viewBox="0 0 615 629" fill="none" xmlns="http://www.w3.org/2000/svg">
<g clip-path="url(#clip0_183_38)">
<rect width="615" height="628.5" fill="white"/>
<path d="M263.669 -18L264.034 -6.35185C264.217 5.2963 264.948 28.5926 281.023 51.8889C297.097 75.1852 328.882 98.4815 313.903 121.778C298.924 145.074 237.547 168.37 200.283 191.667C163.201 214.963 150.414 238.259 156.26 261.556C161.922 284.852 186.4 308.148 206.494 331.444C226.587 354.741 242.297 378.037 263.304 401.333C284.311 424.63 310.615 447.926 320.296 471.222C329.978 494.519 323.402 517.815 312.442 541.111C301.481 564.407 286.137 587.704 278.648 599.352L270.976 611H81V599.352C81 587.704 81 564.407 81 541.111C81 517.815 81 494.519 81 471.222C81 447.926 81 424.63 81 401.333C81 378.037 81 354.741 81 331.444C81 308.148 81 284.852 81 261.556C81 238.259 81 214.963 81 191.667C81 168.37 81 145.074 81 121.778C81 98.4815 81 75.1852 81 51.8889C81 28.5926 81 5.2963 81 -6.35185V-18H263.669Z" fill="#080820"/>
<path d="M230.582 -18L231.043 -6.35185C231.274 5.2963 232.196 28.5926 252.487 51.8889C272.779 75.1852 312.9 98.4815 293.992 121.778C275.085 145.074 197.609 168.37 150.57 191.667C103.762 214.963 87.6212 238.259 94.9999 261.556C102.148 284.852 133.046 308.148 158.41 331.444C183.774 354.741 203.604 378.037 230.121 401.333C256.638 424.63 289.842 447.926 302.063 471.222C314.283 494.519 305.983 517.815 292.148 541.111C278.313 564.407 258.944 587.704 249.49 599.352L239.805 611H0V599.352C0 587.704 0 564.407 0 541.111C0 517.815 0 494.519 0 471.222C0 447.926 0 424.63 0 401.333C0 378.037 0 354.741 0 331.444C0 308.148 0 284.852 0 261.556C0 238.259 0 214.963 0 191.667C0 168.37 0 145.074 0 121.778C0 98.4815 0 75.1852 0 51.8889C0 28.5926 0 5.2963 0 -6.35185V-18H230.582Z" fill="#4D51B3"/>
<path d="M182.669 -18L183.034 -6.35185C183.217 5.2963 183.948 28.5926 200.023 51.8889C216.097 75.1852 247.882 98.4815 232.903 121.778C217.924 145.074 156.547 168.37 119.283 191.667C82.201 214.963 69.4142 238.259 75.2596 261.556C80.9224 284.852 105.4 308.148 125.494 331.444C145.587 354.741 161.297 378.037 182.304 401.333C203.311 424.63 229.615 447.926 239.296 471.222C248.978 494.519 242.402 517.815 231.442 541.111C220.481 564.407 205.137 587.704 197.648 599.352L189.976 611H0V599.352C0 587.704 0 564.407 0 541.111C0 517.815 0 494.519 0 471.222C0 447.926 0 424.63 0 401.333C0 378.037 0 354.741 0 331.444C0 308.148 0 284.852 0 261.556C0 238.259 0 214.963 0 191.667C0 168.37 0 145.074 0 121.778C0 98.4815 0 75.1852 0 51.8889C0 28.5926 0 5.2963 0 -6.35185V-18H182.669Z" fill="#080820"/>
<path d="M352.952 219.7C347.818 219.7 343.408 218.673 339.722 216.62C336.082 214.52 333.282 211.58 331.322 207.8C329.362 203.973 328.382 199.47 328.382 194.29C328.382 190.417 328.942 186.94 330.062 183.86C331.182 180.733 332.792 178.073 334.892 175.88C336.992 173.64 339.558 171.937 342.592 170.77C345.672 169.557 349.125 168.95 352.952 168.95C355.518 168.95 358.038 169.277 360.512 169.93C362.985 170.583 365.155 171.517 367.022 172.73C368.002 173.337 368.655 174.083 368.982 174.97C369.308 175.81 369.378 176.65 369.192 177.49C369.005 178.283 368.608 178.96 368.002 179.52C367.442 180.08 366.718 180.407 365.832 180.5C364.992 180.547 364.058 180.243 363.032 179.59C361.585 178.657 360.022 177.98 358.342 177.56C356.662 177.14 354.958 176.93 353.232 176.93C349.918 176.93 347.118 177.607 344.832 178.96C342.545 180.313 340.818 182.273 339.652 184.84C338.485 187.407 337.902 190.557 337.902 194.29C337.902 197.977 338.485 201.127 339.652 203.74C340.818 206.353 342.545 208.337 344.832 209.69C347.118 211.043 349.918 211.72 353.232 211.72C355.005 211.72 356.755 211.51 358.482 211.09C360.208 210.623 361.842 209.923 363.382 208.99C364.408 208.383 365.318 208.127 366.112 208.22C366.952 208.267 367.652 208.547 368.212 209.06C368.772 209.573 369.145 210.227 369.332 211.02C369.518 211.767 369.472 212.56 369.192 213.4C368.912 214.193 368.352 214.893 367.512 215.5C365.645 216.853 363.405 217.903 360.792 218.65C358.225 219.35 355.612 219.7 352.952 219.7ZM377.034 219.56C375.914 219.56 375.004 219.303 374.304 218.79C373.651 218.277 373.254 217.6 373.114 216.76C372.974 215.873 373.138 214.893 373.604 213.82L392.084 172.87C392.691 171.517 393.414 170.56 394.254 170C395.141 169.393 396.144 169.09 397.264 169.09C398.338 169.09 399.294 169.393 400.134 170C401.021 170.56 401.768 171.517 402.374 172.87L420.924 213.82C421.438 214.893 421.624 215.873 421.484 216.76C421.344 217.647 420.948 218.347 420.294 218.86C419.641 219.327 418.778 219.56 417.704 219.56C416.398 219.56 415.371 219.257 414.624 218.65C413.924 217.997 413.294 217.017 412.734 215.71L408.184 205.14L411.964 207.59H382.424L386.204 205.14L381.724 215.71C381.118 217.063 380.488 218.043 379.834 218.65C379.181 219.257 378.248 219.56 377.034 219.56ZM397.124 179.38L387.324 202.69L385.504 200.45H408.884L407.134 202.69L397.264 179.38H397.124ZM433.394 219C431.854 219 430.664 218.603 429.824 217.81C429.031 216.97 428.634 215.78 428.634 214.24V174.41C428.634 172.87 429.031 171.703 429.824 170.91C430.664 170.07 431.854 169.65 433.394 169.65H458.384C459.551 169.65 460.437 169.953 461.044 170.56C461.697 171.167 462.024 172.03 462.024 173.15C462.024 174.317 461.697 175.227 461.044 175.88C460.437 176.487 459.551 176.79 458.384 176.79H437.244V190.37H456.844C458.057 190.37 458.967 190.673 459.574 191.28C460.181 191.887 460.484 192.773 460.484 193.94C460.484 195.107 460.181 195.993 459.574 196.6C458.967 197.207 458.057 197.51 456.844 197.51H437.244V211.86H458.384C459.551 211.86 460.437 212.163 461.044 212.77C461.697 213.377 462.024 214.263 462.024 215.43C462.024 216.597 461.697 217.483 461.044 218.09C460.437 218.697 459.551 219 458.384 219H433.394ZM472.432 219C471.265 219 470.308 218.767 469.562 218.3C468.862 217.833 468.372 217.203 468.092 216.41C467.858 215.57 467.858 214.66 468.092 213.68C468.372 212.653 468.908 211.603 469.702 210.53L496.442 174.27V177.14H471.732C470.425 177.14 469.422 176.813 468.722 176.16C468.068 175.507 467.742 174.573 467.742 173.36C467.742 172.147 468.068 171.237 468.722 170.63C469.422 169.977 470.425 169.65 471.732 169.65H500.712C501.878 169.65 502.812 169.883 503.512 170.35C504.258 170.817 504.748 171.447 504.982 172.24C505.262 173.033 505.262 173.943 504.982 174.97C504.748 175.997 504.235 177.047 503.442 178.12L476.702 214.31V211.51H502.462C503.768 211.51 504.748 211.837 505.402 212.49C506.102 213.097 506.452 214.007 506.452 215.22C506.452 216.433 506.102 217.367 505.402 218.02C504.748 218.673 503.768 219 502.462 219H472.432ZM257.864 314.7C252.73 314.7 248.32 313.673 244.634 311.62C240.994 309.52 238.194 306.58 236.234 302.8C234.274 298.973 233.294 294.47 233.294 289.29C233.294 285.417 233.854 281.94 234.974 278.86C236.094 275.733 237.704 273.073 239.804 270.88C241.904 268.64 244.47 266.937 247.504 265.77C250.584 264.557 254.037 263.95 257.864 263.95C260.43 263.95 262.95 264.277 265.424 264.93C267.897 265.583 270.067 266.517 271.934 267.73C272.914 268.337 273.567 269.083 273.894 269.97C274.22 270.81 274.29 271.65 274.104 272.49C273.917 273.283 273.52 273.96 272.914 274.52C272.354 275.08 271.63 275.407 270.744 275.5C269.904 275.547 268.97 275.243 267.944 274.59C266.497 273.657 264.934 272.98 263.254 272.56C261.574 272.14 259.87 271.93 258.144 271.93C254.83 271.93 252.03 272.607 249.744 273.96C247.457 275.313 245.73 277.273 244.564 279.84C243.397 282.407 242.814 285.557 242.814 289.29C242.814 292.977 243.397 296.127 244.564 298.74C245.73 301.353 247.457 303.337 249.744 304.69C252.03 306.043 254.83 306.72 258.144 306.72C259.917 306.72 261.667 306.51 263.394 306.09C265.12 305.623 266.754 304.923 268.294 303.99C269.32 303.383 270.23 303.127 271.024 303.22C271.864 303.267 272.564 303.547 273.124 304.06C273.684 304.573 274.057 305.227 274.244 306.02C274.43 306.767 274.384 307.56 274.104 308.4C273.824 309.193 273.264 309.893 272.424 310.5C270.557 311.853 268.317 312.903 265.704 313.65C263.137 314.35 260.524 314.7 257.864 314.7ZM294.791 314.7C291.244 314.7 288.164 313.977 285.551 312.53C282.938 311.083 280.908 309.03 279.461 306.37C278.014 303.663 277.291 300.49 277.291 296.85C277.291 294.097 277.688 291.647 278.481 289.5C279.321 287.307 280.511 285.44 282.051 283.9C283.591 282.313 285.434 281.123 287.581 280.33C289.728 279.49 292.131 279.07 294.791 279.07C298.338 279.07 301.418 279.793 304.031 281.24C306.644 282.687 308.674 284.74 310.121 287.4C311.568 290.06 312.291 293.21 312.291 296.85C312.291 299.603 311.871 302.077 311.031 304.27C310.238 306.463 309.071 308.353 307.531 309.94C305.991 311.48 304.148 312.67 302.001 313.51C299.854 314.303 297.451 314.7 294.791 314.7ZM294.791 308.05C296.518 308.05 298.034 307.63 299.341 306.79C300.648 305.95 301.651 304.713 302.351 303.08C303.098 301.4 303.471 299.323 303.471 296.85C303.471 293.117 302.678 290.34 301.091 288.52C299.504 286.653 297.404 285.72 294.791 285.72C293.064 285.72 291.548 286.14 290.241 286.98C288.934 287.773 287.908 289.01 287.161 290.69C286.461 292.323 286.111 294.377 286.111 296.85C286.111 300.537 286.904 303.337 288.491 305.25C290.078 307.117 292.178 308.05 294.791 308.05ZM323.853 314.56C322.453 314.56 321.38 314.187 320.633 313.44C319.886 312.647 319.513 311.527 319.513 310.08V283.62C319.513 282.173 319.886 281.077 320.633 280.33C321.38 279.583 322.43 279.21 323.783 279.21C325.136 279.21 326.186 279.583 326.933 280.33C327.68 281.077 328.053 282.173 328.053 283.62V288.38L327.283 286.63C328.31 284.157 329.896 282.29 332.043 281.03C334.236 279.723 336.71 279.07 339.463 279.07C342.216 279.07 344.48 279.583 346.253 280.61C348.026 281.637 349.356 283.2 350.243 285.3C351.13 287.353 351.573 289.967 351.573 293.14V310.08C351.573 311.527 351.2 312.647 350.453 313.44C349.706 314.187 348.633 314.56 347.233 314.56C345.833 314.56 344.736 314.187 343.943 313.44C343.196 312.647 342.823 311.527 342.823 310.08V293.56C342.823 290.9 342.31 288.963 341.283 287.75C340.303 286.537 338.763 285.93 336.663 285.93C334.096 285.93 332.043 286.747 330.503 288.38C329.01 289.967 328.263 292.09 328.263 294.75V310.08C328.263 313.067 326.793 314.56 323.853 314.56ZM372.99 314.7C370.983 314.7 368.86 314.49 366.62 314.07C364.38 313.65 362.373 312.927 360.6 311.9C359.853 311.433 359.317 310.897 358.99 310.29C358.71 309.637 358.593 309.007 358.64 308.4C358.733 307.747 358.967 307.187 359.34 306.72C359.76 306.253 360.273 305.95 360.88 305.81C361.533 305.67 362.233 305.787 362.98 306.16C364.847 307.047 366.597 307.677 368.23 308.05C369.863 308.377 371.473 308.54 373.06 308.54C375.3 308.54 376.957 308.167 378.03 307.42C379.15 306.627 379.71 305.6 379.71 304.34C379.71 303.267 379.337 302.45 378.59 301.89C377.89 301.283 376.817 300.84 375.37 300.56L368.37 299.23C365.477 298.67 363.26 297.62 361.72 296.08C360.227 294.493 359.48 292.463 359.48 289.99C359.48 287.75 360.087 285.813 361.3 284.18C362.56 282.547 364.287 281.287 366.48 280.4C368.673 279.513 371.193 279.07 374.04 279.07C376.093 279.07 378.007 279.303 379.78 279.77C381.6 280.19 383.35 280.867 385.03 281.8C385.73 282.173 386.197 282.663 386.43 283.27C386.71 283.877 386.78 284.507 386.64 285.16C386.5 285.767 386.22 286.327 385.8 286.84C385.38 287.307 384.843 287.61 384.19 287.75C383.583 287.843 382.883 287.703 382.09 287.33C380.643 286.583 379.243 286.047 377.89 285.72C376.583 285.393 375.323 285.23 374.11 285.23C371.823 285.23 370.12 285.627 369 286.42C367.927 287.213 367.39 288.263 367.39 289.57C367.39 290.55 367.717 291.367 368.37 292.02C369.023 292.673 370.027 293.117 371.38 293.35L378.38 294.68C381.413 295.24 383.7 296.267 385.24 297.76C386.827 299.253 387.62 301.26 387.62 303.78C387.62 307.187 386.29 309.87 383.63 311.83C380.97 313.743 377.423 314.7 372.99 314.7ZM407.03 314.7C404.183 314.7 401.827 314.187 399.96 313.16C398.093 312.087 396.693 310.5 395.76 308.4C394.873 306.3 394.43 303.687 394.43 300.56V283.62C394.43 282.127 394.803 281.03 395.55 280.33C396.297 279.583 397.37 279.21 398.77 279.21C400.17 279.21 401.243 279.583 401.99 280.33C402.783 281.03 403.18 282.127 403.18 283.62V300.7C403.18 303.127 403.67 304.923 404.65 306.09C405.63 307.257 407.193 307.84 409.34 307.84C411.673 307.84 413.587 307.047 415.08 305.46C416.573 303.827 417.32 301.68 417.32 299.02V283.62C417.32 282.127 417.693 281.03 418.44 280.33C419.187 279.583 420.26 279.21 421.66 279.21C423.06 279.21 424.133 279.583 424.88 280.33C425.673 281.03 426.07 282.127 426.07 283.62V310.08C426.07 313.067 424.647 314.56 421.8 314.56C420.447 314.56 419.397 314.187 418.65 313.44C417.903 312.647 417.53 311.527 417.53 310.08V304.76L418.51 306.86C417.53 309.38 416.037 311.317 414.03 312.67C412.07 314.023 409.737 314.7 407.03 314.7ZM446.867 314.7C442.994 314.7 440.077 313.603 438.117 311.41C436.157 309.17 435.177 305.903 435.177 301.61V268.5C435.177 267.053 435.55 265.957 436.297 265.21C437.044 264.463 438.117 264.09 439.517 264.09C440.917 264.09 441.99 264.463 442.737 265.21C443.53 265.957 443.927 267.053 443.927 268.5V301.19C443.927 303.337 444.37 304.923 445.257 305.95C446.19 306.977 447.497 307.49 449.177 307.49C449.55 307.49 449.9 307.49 450.227 307.49C450.554 307.443 450.88 307.397 451.207 307.35C451.86 307.257 452.304 307.443 452.537 307.91C452.77 308.33 452.887 309.217 452.887 310.57C452.887 311.737 452.654 312.647 452.187 313.3C451.72 313.953 450.95 314.35 449.877 314.49C449.41 314.537 448.92 314.583 448.407 314.63C447.894 314.677 447.38 314.7 446.867 314.7ZM472.322 314.7C469.288 314.7 466.745 314.187 464.692 313.16C462.685 312.133 461.192 310.64 460.212 308.68C459.232 306.673 458.742 304.2 458.742 301.26V286.35H455.102C453.982 286.35 453.118 286.07 452.512 285.51C451.905 284.903 451.602 284.087 451.602 283.06C451.602 281.987 451.905 281.17 452.512 280.61C453.118 280.05 453.982 279.77 455.102 279.77H458.742V273.4C458.742 271.953 459.115 270.857 459.862 270.11C460.655 269.363 461.752 268.99 463.152 268.99C464.552 268.99 465.625 269.363 466.372 270.11C467.118 270.857 467.492 271.953 467.492 273.4V279.77H474.912C476.032 279.77 476.895 280.05 477.502 280.61C478.108 281.17 478.412 281.987 478.412 283.06C478.412 284.087 478.108 284.903 477.502 285.51C476.895 286.07 476.032 286.35 474.912 286.35H467.492V300.77C467.492 303.01 467.982 304.69 468.962 305.81C469.942 306.93 471.528 307.49 473.722 307.49C474.515 307.49 475.215 307.42 475.822 307.28C476.428 307.14 476.965 307.047 477.432 307C477.992 306.953 478.458 307.14 478.832 307.56C479.205 307.933 479.392 308.727 479.392 309.94C479.392 310.873 479.228 311.713 478.902 312.46C478.622 313.16 478.085 313.65 477.292 313.93C476.685 314.117 475.892 314.28 474.912 314.42C473.932 314.607 473.068 314.7 472.322 314.7ZM498.775 314.7C495.229 314.7 492.149 313.977 489.535 312.53C486.922 311.083 484.892 309.03 483.445 306.37C481.999 303.663 481.275 300.49 481.275 296.85C481.275 294.097 481.672 291.647 482.465 289.5C483.305 287.307 484.495 285.44 486.035 283.9C487.575 282.313 489.419 281.123 491.565 280.33C493.712 279.49 496.115 279.07 498.775 279.07C502.322 279.07 505.402 279.793 508.015 281.24C510.629 282.687 512.659 284.74 514.105 287.4C515.552 290.06 516.275 293.21 516.275 296.85C516.275 299.603 515.855 302.077 515.015 304.27C514.222 306.463 513.055 308.353 511.515 309.94C509.975 311.48 508.132 312.67 505.985 313.51C503.839 314.303 501.435 314.7 498.775 314.7ZM498.775 308.05C500.502 308.05 502.019 307.63 503.325 306.79C504.632 305.95 505.635 304.713 506.335 303.08C507.082 301.4 507.455 299.323 507.455 296.85C507.455 293.117 506.662 290.34 505.075 288.52C503.489 286.653 501.389 285.72 498.775 285.72C497.049 285.72 495.532 286.14 494.225 286.98C492.919 287.773 491.892 289.01 491.145 290.69C490.445 292.323 490.095 294.377 490.095 296.85C490.095 300.537 490.889 303.337 492.475 305.25C494.062 307.117 496.162 308.05 498.775 308.05ZM527.977 314.56C526.531 314.56 525.411 314.187 524.617 313.44C523.871 312.647 523.497 311.527 523.497 310.08V283.62C523.497 282.173 523.871 281.077 524.617 280.33C525.364 279.583 526.414 279.21 527.767 279.21C529.121 279.21 530.171 279.583 530.917 280.33C531.664 281.077 532.037 282.173 532.037 283.62V288.03H531.337C531.991 285.23 533.274 283.107 535.187 281.66C537.101 280.213 539.644 279.35 542.817 279.07C543.797 278.977 544.567 279.233 545.127 279.84C545.734 280.4 546.084 281.287 546.177 282.5C546.271 283.667 545.991 284.623 545.337 285.37C544.731 286.07 543.797 286.49 542.537 286.63L540.997 286.77C538.151 287.05 536.004 287.937 534.557 289.43C533.111 290.877 532.387 292.93 532.387 295.59V310.08C532.387 311.527 532.014 312.647 531.267 313.44C530.521 314.187 529.424 314.56 527.977 314.56ZM555.249 314.49C553.849 314.49 552.776 314.07 552.029 313.23C551.283 312.39 550.909 311.223 550.909 309.73V284.04C550.909 282.5 551.283 281.333 552.029 280.54C552.776 279.7 553.849 279.28 555.249 279.28C556.649 279.28 557.723 279.7 558.469 280.54C559.263 281.333 559.659 282.5 559.659 284.04V309.73C559.659 311.223 559.286 312.39 558.539 313.23C557.793 314.07 556.696 314.49 555.249 314.49ZM555.249 272.77C553.616 272.77 552.333 272.373 551.399 271.58C550.513 270.74 550.069 269.597 550.069 268.15C550.069 266.657 550.513 265.513 551.399 264.72C552.333 263.927 553.616 263.53 555.249 263.53C556.929 263.53 558.213 263.927 559.099 264.72C559.986 265.513 560.429 266.657 560.429 268.15C560.429 269.597 559.986 270.74 559.099 271.58C558.213 272.373 556.929 272.77 555.249 272.77ZM580.021 314.7C577.548 314.7 575.331 314.233 573.371 313.3C571.458 312.32 569.941 311.013 568.821 309.38C567.748 307.747 567.211 305.903 567.211 303.85C567.211 301.33 567.865 299.347 569.171 297.9C570.478 296.407 572.601 295.333 575.541 294.68C578.481 294.027 582.425 293.7 587.371 293.7H590.871V298.74H587.441C584.548 298.74 582.238 298.88 580.511 299.16C578.785 299.44 577.548 299.93 576.801 300.63C576.101 301.283 575.751 302.217 575.751 303.43C575.751 304.97 576.288 306.23 577.361 307.21C578.435 308.19 579.928 308.68 581.841 308.68C583.381 308.68 584.735 308.33 585.901 307.63C587.115 306.883 588.071 305.88 588.771 304.62C589.471 303.36 589.821 301.913 589.821 300.28V292.23C589.821 289.897 589.308 288.217 588.281 287.19C587.255 286.163 585.528 285.65 583.101 285.65C581.748 285.65 580.278 285.813 578.691 286.14C577.151 286.467 575.518 287.027 573.791 287.82C572.905 288.24 572.111 288.357 571.411 288.17C570.758 287.983 570.245 287.61 569.871 287.05C569.498 286.443 569.311 285.79 569.311 285.09C569.311 284.39 569.498 283.713 569.871 283.06C570.245 282.36 570.875 281.847 571.761 281.52C573.908 280.633 575.961 280.003 577.921 279.63C579.928 279.257 581.748 279.07 583.381 279.07C586.741 279.07 589.495 279.583 591.641 280.61C593.835 281.637 595.468 283.2 596.541 285.3C597.615 287.353 598.151 290.013 598.151 293.28V310.08C598.151 311.527 597.801 312.647 597.101 313.44C596.401 314.187 595.398 314.56 594.091 314.56C592.785 314.56 591.758 314.187 591.011 313.44C590.311 312.647 589.961 311.527 589.961 310.08V306.72H590.521C590.195 308.353 589.541 309.777 588.561 310.99C587.628 312.157 586.438 313.067 584.991 313.72C583.545 314.373 581.888 314.7 580.021 314.7ZM294.221 409.7C291.234 409.7 288.597 408.977 286.311 407.53C284.071 406.083 282.321 404.03 281.061 401.37C279.801 398.663 279.171 395.49 279.171 391.85C279.171 388.163 279.801 385.013 281.061 382.4C282.321 379.74 284.071 377.687 286.311 376.24C288.597 374.793 291.234 374.07 294.221 374.07C297.067 374.07 299.541 374.77 301.641 376.17C303.787 377.57 305.234 379.413 305.981 381.7H305.211V363.5C305.211 362.053 305.584 360.957 306.331 360.21C307.077 359.463 308.151 359.09 309.551 359.09C310.951 359.09 312.024 359.463 312.771 360.21C313.564 360.957 313.961 362.053 313.961 363.5V405.08C313.961 406.527 313.587 407.647 312.841 408.44C312.094 409.187 311.021 409.56 309.621 409.56C308.221 409.56 307.147 409.187 306.401 408.44C305.654 407.647 305.281 406.527 305.281 405.08V399.62L306.051 401.72C305.351 404.147 303.927 406.083 301.781 407.53C299.634 408.977 297.114 409.7 294.221 409.7ZM296.671 403.05C298.397 403.05 299.914 402.63 301.221 401.79C302.527 400.95 303.531 399.713 304.231 398.08C304.977 396.4 305.351 394.323 305.351 391.85C305.351 388.117 304.557 385.34 302.971 383.52C301.384 381.653 299.284 380.72 296.671 380.72C294.944 380.72 293.427 381.14 292.121 381.98C290.814 382.773 289.787 384.01 289.041 385.69C288.341 387.323 287.991 389.377 287.991 391.85C287.991 395.537 288.784 398.337 290.371 400.25C291.957 402.117 294.057 403.05 296.671 403.05ZM339.903 409.7C336.03 409.7 332.693 408.977 329.893 407.53C327.093 406.083 324.923 404.03 323.383 401.37C321.89 398.71 321.143 395.56 321.143 391.92C321.143 388.373 321.867 385.27 323.313 382.61C324.807 379.95 326.837 377.873 329.403 376.38C332.017 374.84 334.98 374.07 338.293 374.07C340.72 374.07 342.89 374.467 344.803 375.26C346.763 376.053 348.42 377.197 349.773 378.69C351.173 380.183 352.223 382.003 352.923 384.15C353.67 386.25 354.043 388.63 354.043 391.29C354.043 392.13 353.74 392.783 353.133 393.25C352.573 393.67 351.757 393.88 350.683 393.88H328.213V388.84H347.883L346.763 389.89C346.763 387.743 346.437 385.947 345.783 384.5C345.177 383.053 344.267 381.957 343.053 381.21C341.887 380.417 340.417 380.02 338.643 380.02C336.683 380.02 335.003 380.487 333.603 381.42C332.25 382.307 331.2 383.59 330.453 385.27C329.753 386.903 329.403 388.863 329.403 391.15V391.64C329.403 395.467 330.29 398.337 332.063 400.25C333.883 402.117 336.543 403.05 340.043 403.05C341.257 403.05 342.61 402.91 344.103 402.63C345.643 402.303 347.09 401.767 348.443 401.02C349.423 400.46 350.287 400.227 351.033 400.32C351.78 400.367 352.363 400.623 352.783 401.09C353.25 401.557 353.53 402.14 353.623 402.84C353.717 403.493 353.577 404.17 353.203 404.87C352.877 405.57 352.293 406.177 351.453 406.69C349.82 407.717 347.93 408.487 345.783 409C343.683 409.467 341.723 409.7 339.903 409.7ZM385.297 409.56C383.85 409.56 382.73 409.163 381.937 408.37C381.19 407.53 380.817 406.387 380.817 404.94V364.2C380.817 362.707 381.213 361.587 382.007 360.84C382.8 360.047 383.92 359.65 385.367 359.65H402.237C407.65 359.65 411.827 361.003 414.767 363.71C417.707 366.417 419.177 370.197 419.177 375.05C419.177 379.903 417.707 383.707 414.767 386.46C411.827 389.167 407.65 390.52 402.237 390.52H389.777V404.94C389.777 406.387 389.403 407.53 388.657 408.37C387.91 409.163 386.79 409.56 385.297 409.56ZM389.777 383.45H400.837C404.01 383.45 406.413 382.75 408.047 381.35C409.68 379.903 410.497 377.803 410.497 375.05C410.497 372.297 409.68 370.22 408.047 368.82C406.413 367.42 404.01 366.72 400.837 366.72H389.777V383.45ZM435.27 409.7C432.797 409.7 430.58 409.233 428.62 408.3C426.707 407.32 425.19 406.013 424.07 404.38C422.997 402.747 422.46 400.903 422.46 398.85C422.46 396.33 423.114 394.347 424.42 392.9C425.727 391.407 427.85 390.333 430.79 389.68C433.73 389.027 437.674 388.7 442.62 388.7H446.12V393.74H442.69C439.797 393.74 437.487 393.88 435.76 394.16C434.034 394.44 432.797 394.93 432.05 395.63C431.35 396.283 431 397.217 431 398.43C431 399.97 431.537 401.23 432.61 402.21C433.684 403.19 435.177 403.68 437.09 403.68C438.63 403.68 439.984 403.33 441.15 402.63C442.364 401.883 443.32 400.88 444.02 399.62C444.72 398.36 445.07 396.913 445.07 395.28V387.23C445.07 384.897 444.557 383.217 443.53 382.19C442.504 381.163 440.777 380.65 438.35 380.65C436.997 380.65 435.527 380.813 433.94 381.14C432.4 381.467 430.767 382.027 429.04 382.82C428.154 383.24 427.36 383.357 426.66 383.17C426.007 382.983 425.494 382.61 425.12 382.05C424.747 381.443 424.56 380.79 424.56 380.09C424.56 379.39 424.747 378.713 425.12 378.06C425.494 377.36 426.124 376.847 427.01 376.52C429.157 375.633 431.21 375.003 433.17 374.63C435.177 374.257 436.997 374.07 438.63 374.07C441.99 374.07 444.744 374.583 446.89 375.61C449.084 376.637 450.717 378.2 451.79 380.3C452.864 382.353 453.4 385.013 453.4 388.28V405.08C453.4 406.527 453.05 407.647 452.35 408.44C451.65 409.187 450.647 409.56 449.34 409.56C448.034 409.56 447.007 409.187 446.26 408.44C445.56 407.647 445.21 406.527 445.21 405.08V401.72H445.77C445.444 403.353 444.79 404.777 443.81 405.99C442.877 407.157 441.687 408.067 440.24 408.72C438.794 409.373 437.137 409.7 435.27 409.7ZM478.241 422.3C475.721 422.3 473.271 422.067 470.891 421.6C468.558 421.133 466.435 420.41 464.521 419.43C463.635 418.963 463.028 418.403 462.701 417.75C462.421 417.097 462.328 416.42 462.421 415.72C462.561 415.067 462.841 414.483 463.261 413.97C463.728 413.457 464.288 413.107 464.941 412.92C465.595 412.733 466.271 412.827 466.971 413.2C469.025 414.227 470.961 414.88 472.781 415.16C474.648 415.487 476.235 415.65 477.541 415.65C480.668 415.65 483.001 414.88 484.541 413.34C486.128 411.847 486.921 409.607 486.921 406.62V400.32H487.551C486.851 402.7 485.381 404.613 483.141 406.06C480.948 407.46 478.451 408.16 475.651 408.16C472.571 408.16 469.888 407.46 467.601 406.06C465.315 404.613 463.541 402.607 462.281 400.04C461.021 397.473 460.391 394.487 460.391 391.08C460.391 388.513 460.741 386.203 461.441 384.15C462.188 382.05 463.215 380.253 464.521 378.76C465.875 377.267 467.485 376.123 469.351 375.33C471.265 374.49 473.365 374.07 475.651 374.07C478.545 374.07 481.065 374.793 483.211 376.24C485.405 377.64 486.828 379.507 487.481 381.84L486.781 383.59V378.62C486.781 377.173 487.155 376.077 487.901 375.33C488.695 374.583 489.768 374.21 491.121 374.21C492.521 374.21 493.595 374.583 494.341 375.33C495.088 376.077 495.461 377.173 495.461 378.62V405.57C495.461 411.123 493.991 415.3 491.051 418.1C488.111 420.9 483.841 422.3 478.241 422.3ZM478.031 401.51C479.851 401.51 481.415 401.09 482.721 400.25C484.028 399.41 485.031 398.22 485.731 396.68C486.478 395.093 486.851 393.227 486.851 391.08C486.851 387.86 486.058 385.34 484.471 383.52C482.885 381.653 480.738 380.72 478.031 380.72C476.211 380.72 474.648 381.14 473.341 381.98C472.035 382.82 471.008 384.01 470.261 385.55C469.561 387.09 469.211 388.933 469.211 391.08C469.211 394.3 470.005 396.843 471.591 398.71C473.178 400.577 475.325 401.51 478.031 401.51ZM520.138 409.7C516.591 409.7 513.511 408.977 510.898 407.53C508.284 406.083 506.254 404.03 504.808 401.37C503.361 398.663 502.638 395.49 502.638 391.85C502.638 389.097 503.034 386.647 503.828 384.5C504.668 382.307 505.858 380.44 507.398 378.9C508.938 377.313 510.781 376.123 512.928 375.33C515.074 374.49 517.478 374.07 520.138 374.07C523.684 374.07 526.764 374.793 529.378 376.24C531.991 377.687 534.021 379.74 535.468 382.4C536.914 385.06 537.638 388.21 537.638 391.85C537.638 394.603 537.218 397.077 536.378 399.27C535.584 401.463 534.418 403.353 532.878 404.94C531.338 406.48 529.494 407.67 527.348 408.51C525.201 409.303 522.798 409.7 520.138 409.7ZM520.138 403.05C521.864 403.05 523.381 402.63 524.688 401.79C525.994 400.95 526.998 399.713 527.698 398.08C528.444 396.4 528.818 394.323 528.818 391.85C528.818 388.117 528.024 385.34 526.438 383.52C524.851 381.653 522.751 380.72 520.138 380.72C518.411 380.72 516.894 381.14 515.588 381.98C514.281 382.773 513.254 384.01 512.508 385.69C511.808 387.323 511.458 389.377 511.458 391.85C511.458 395.537 512.251 398.337 513.838 400.25C515.424 402.117 517.524 403.05 520.138 403.05ZM557.39 409.7C555.383 409.7 553.26 409.49 551.02 409.07C548.78 408.65 546.773 407.927 545 406.9C544.253 406.433 543.716 405.897 543.39 405.29C543.11 404.637 542.993 404.007 543.04 403.4C543.133 402.747 543.366 402.187 543.74 401.72C544.16 401.253 544.673 400.95 545.28 400.81C545.933 400.67 546.633 400.787 547.38 401.16C549.246 402.047 550.996 402.677 552.63 403.05C554.263 403.377 555.873 403.54 557.46 403.54C559.7 403.54 561.356 403.167 562.43 402.42C563.55 401.627 564.11 400.6 564.11 399.34C564.11 398.267 563.736 397.45 562.99 396.89C562.29 396.283 561.216 395.84 559.77 395.56L552.77 394.23C549.876 393.67 547.66 392.62 546.12 391.08C544.626 389.493 543.88 387.463 543.88 384.99C543.88 382.75 544.486 380.813 545.7 379.18C546.96 377.547 548.686 376.287 550.88 375.4C553.073 374.513 555.593 374.07 558.44 374.07C560.493 374.07 562.406 374.303 564.18 374.77C566 375.19 567.75 375.867 569.43 376.8C570.13 377.173 570.596 377.663 570.83 378.27C571.11 378.877 571.18 379.507 571.04 380.16C570.9 380.767 570.62 381.327 570.2 381.84C569.78 382.307 569.243 382.61 568.59 382.75C567.983 382.843 567.283 382.703 566.49 382.33C565.043 381.583 563.643 381.047 562.29 380.72C560.983 380.393 559.723 380.23 558.51 380.23C556.223 380.23 554.52 380.627 553.4 381.42C552.326 382.213 551.79 383.263 551.79 384.57C551.79 385.55 552.116 386.367 552.77 387.02C553.423 387.673 554.426 388.117 555.78 388.35L562.78 389.68C565.813 390.24 568.1 391.267 569.64 392.76C571.226 394.253 572.02 396.26 572.02 398.78C572.02 402.187 570.69 404.87 568.03 406.83C565.37 408.743 561.823 409.7 557.39 409.7Z" fill="#080820"/>
</g>
<defs>
<clipPath id="clip0_183_38">
<rect width="615" height="628.5" fill="white"/>
</clipPath>
</defs>
</svg>
