<svg width="700" height="700" viewBox="0 0 700 700" fill="none" xmlns="http://www.w3.org/2000/svg">
<path d="M690.037 405.261C688.848 437.654 627.409 426.208 595.509 431.963C570.325 436.506 533.563 417.807 518.219 438.288C509.108 450.45 522.353 469.097 527.511 483.391C542.16 523.987 621.943 570.946 588.994 598.819C543.379 637.404 494.695 454.453 445.524 488.39C396.376 522.312 551.141 634.641 497.864 661.617C451.873 684.904 454.22 524.733 404.076 536.692C369.828 544.861 420.533 639.094 385.424 641.743C342.149 645.009 386.421 521.739 343.263 517.175C316.524 514.348 328.465 586.943 301.579 587.183C285.441 587.327 291.747 548.176 275.813 545.616C243.915 540.491 230.292 595.373 200.765 608.483C179.527 617.912 148.407 633.617 131.024 618.197C112.391 601.669 141.828 565.808 132.447 542.735C126.499 528.106 110.166 519.642 98.4135 509.094C85.1593 497.198 59.677 492.558 56.5597 475.023C52.4134 451.701 99.7859 436.049 93.1981 413.296C85.7735 387.652 21.0405 403.247 21.124 376.55C21.2294 342.902 80.5742 342.157 112.249 330.807C138.777 321.301 187.637 338.978 195.528 311.926C201.764 290.548 162.933 280.536 148.06 263.962C123.716 236.831 57.852 208.359 78.3907 178.245C102.101 143.48 159.958 230.32 199.874 217C210.319 213.515 216.185 200.391 219.202 189.802C225.947 166.127 211.861 139.825 214.526 115.353C217.119 91.548 210.897 49.2785 234.56 45.6106C279.804 38.5976 266.689 170.79 311.437 161.105C361.331 150.306 285.788 16.2329 336.234 8.41012C368.401 3.42204 370.54 65.5179 380.791 96.4126C390.501 125.676 366.831 181.174 396.789 188.465C438.976 198.732 433.058 80.6086 476.367 83.6877C493.729 84.9221 488.717 118.54 502.005 129.783C513.869 139.821 540.942 130.986 546.383 145.544C559.498 180.637 467.048 215.208 490.543 244.389C522.418 283.978 612.724 154.738 637.72 198.993C659.095 236.836 544.52 243.564 539.499 286.736C538.142 298.396 559.643 304.155 559.88 315.891C560.15 329.255 533.75 337.338 538.033 350C555.137 400.559 691.995 351.924 690.037 405.261Z" fill="url(#paint0_linear_183_35)" stroke="black"/>
<path d="M238.768 411.664C225.115 411.664 214.448 407.995 206.768 400.656C199.088 393.317 195.248 382.949 195.248 369.552C195.248 360.421 197.04 352.357 200.624 345.36C204.293 338.363 209.456 332.987 216.112 329.232C222.768 325.392 230.448 323.472 239.152 323.472C246.235 323.472 253.061 324.752 259.632 327.312L256.176 343.824C250.373 341.179 244.741 339.856 239.28 339.856C231.515 339.856 225.371 342.416 220.848 347.536C216.325 352.571 214.064 359.312 214.064 367.76C214.064 376.379 216.453 383.077 221.232 387.856C226.011 392.635 232.624 395.024 241.072 395.024C246.619 395.024 251.995 394.128 257.2 392.336L260.016 408.08C253.787 410.469 246.704 411.664 238.768 411.664ZM298.128 324.752H320.4L352.016 410H332.816L325.904 390.544H292.368L285.84 410H266.896L298.128 324.752ZM320.4 374.672L308.88 342.032L297.744 374.672H320.4ZM361.835 324.752H413.675V340.88H380.139V357.904H407.915V373.52H380.139V393.872H413.675V410H361.835V324.752ZM426.51 396.048L467.214 340.88H427.662V324.752H489.87V339.344L449.422 393.872H489.87V410H426.51V396.048Z" fill="white"/>
<defs>
<linearGradient id="paint0_linear_183_35" x1="700" y1="-1.71806e-05" x2="700" y2="700" gradientUnits="userSpaceOnUse">
<stop stop-color="#080820"/>
<stop offset="1" stop-color="#020240"/>
</linearGradient>
</defs>
</svg>
