<svg xmlns="http://www.w3.org/2000/svg" version="1.1" xmlns:xlink="http://www.w3.org/1999/xlink" xmlns:svgjs="http://svgjs.dev/svgjs" viewBox="0 0 800 800"><defs><linearGradient x1="50%" y1="0%" x2="50%" y2="100%" id="ffflurry-grad" gradientTransform="rotate(270)"><stop stop-color="#fff" stop-opacity="1" offset="0%"></stop><stop stop-color="4D51B3" stop-opacity="1" offset="45%"></stop><stop stop-color="080820" stop-opacity="1" offset="100%"></stop></linearGradient></defs><rect width="100%" height="100%" fill="#ffffff"></rect><g fill="url(#ffflurry-grad)"><rect width="198" height="3" x="546" y="701.5" rx="1.5" transform="rotate(52, 645, 703)" opacity="0.94"></rect><rect width="230" height="3" x="47" y="356.5" rx="1.5" transform="rotate(52, 162, 358)" opacity="0.47"></rect><rect width="146" height="3" x="-40" y="600.5" rx="1.5" transform="rotate(52, 33, 602)" opacity="0.38"></rect><rect width="428" height="3" x="-1" y="709.5" rx="1.5" transform="rotate(52, 213, 711)" opacity="0.73"></rect><rect width="689" height="3" x="304.5" y="52.5" rx="1.5" transform="rotate(52, 649, 54)" opacity="0.63"></rect><rect width="645" height="3" x="307.5" y="768.5" rx="1.5" transform="rotate(52, 630, 770)" opacity="0.88"></rect><rect width="969" height="3" x="34.5" y="382.5" rx="1.5" transform="rotate(52, 519, 384)" opacity="0.14"></rect><rect width="275" height="3" x="210.5" y="139.5" rx="1.5" transform="rotate(52, 348, 141)" opacity="0.66"></rect><rect width="208" height="3" x="332" y="762.5" rx="1.5" transform="rotate(52, 436, 764)" opacity="0.38"></rect><rect width="527" height="3" x="259.5" y="759.5" rx="1.5" transform="rotate(52, 523, 761)" opacity="0.73"></rect><rect width="901" height="3" x="85.5" y="680.5" rx="1.5" transform="rotate(52, 536, 682)" opacity="0.78"></rect><rect width="568" height="3" x="483" y="583.5" rx="1.5" transform="rotate(52, 767, 585)" opacity="0.93"></rect><rect width="876" height="3" x="268" y="538.5" rx="1.5" transform="rotate(52, 706, 540)" opacity="0.22"></rect><rect width="226" height="3" x="506" y="351.5" rx="1.5" transform="rotate(52, 619, 353)" opacity="0.44"></rect><rect width="1182" height="3" x="-190" y="377.5" rx="1.5" transform="rotate(52, 401, 379)" opacity="1.00"></rect><rect width="91" height="3" x="388.5" y="74.5" rx="1.5" transform="rotate(52, 434, 76)" opacity="0.60"></rect><rect width="361" height="3" x="-115.5" y="161.5" rx="1.5" transform="rotate(52, 65, 163)" opacity="0.98"></rect><rect width="154" height="3" x="25" y="757.5" rx="1.5" transform="rotate(52, 102, 759)" opacity="0.61"></rect><rect width="377" height="3" x="39.5" y="559.5" rx="1.5" transform="rotate(52, 228, 561)" opacity="0.88"></rect><rect width="600" height="3" x="103" y="686.5" rx="1.5" transform="rotate(52, 403, 688)" opacity="0.80"></rect><rect width="248" height="3" x="415" y="50.5" rx="1.5" transform="rotate(52, 539, 52)" opacity="0.44"></rect><rect width="650" height="3" x="-23" y="479.5" rx="1.5" transform="rotate(52, 302, 481)" opacity="0.24"></rect><rect width="260" height="3" x="-22" y="562.5" rx="1.5" transform="rotate(52, 108, 564)" opacity="0.15"></rect><rect width="90" height="3" x="693" y="661.5" rx="1.5" transform="rotate(52, 738, 663)" opacity="0.10"></rect><rect width="604" height="3" x="456" y="75.5" rx="1.5" transform="rotate(52, 758, 77)" opacity="0.44"></rect><rect width="746" height="3" x="-344" y="749.5" rx="1.5" transform="rotate(52, 29, 751)" opacity="0.54"></rect><rect width="338" height="3" x="565" y="19.5" rx="1.5" transform="rotate(52, 734, 21)" opacity="0.23"></rect><rect width="357" height="3" x="116.5" y="38.5" rx="1.5" transform="rotate(52, 295, 40)" opacity="0.71"></rect><rect width="180" height="3" x="78" y="683.5" rx="1.5" transform="rotate(52, 168, 685)" opacity="0.31"></rect><rect width="153" height="3" x="167.5" y="312.5" rx="1.5" transform="rotate(52, 244, 314)" opacity="0.41"></rect><rect width="805" height="3" x="83.5" y="292.5" rx="1.5" transform="rotate(52, 486, 294)" opacity="0.24"></rect><rect width="943" height="3" x="267.5" y="283.5" rx="1.5" transform="rotate(52, 739, 285)" opacity="0.15"></rect><rect width="137" height="3" x="679.5" y="751.5" rx="1.5" transform="rotate(52, 748, 753)" opacity="0.65"></rect><rect width="315" height="3" x="599.5" y="453.5" rx="1.5" transform="rotate(52, 757, 455)" opacity="0.29"></rect><rect width="340" height="3" x="79" y="761.5" rx="1.5" transform="rotate(52, 249, 763)" opacity="0.53"></rect><rect width="448" height="3" x="-52" y="769.5" rx="1.5" transform="rotate(52, 172, 771)" opacity="0.78"></rect><rect width="556" height="3" x="303" y="152.5" rx="1.5" transform="rotate(52, 581, 154)" opacity="0.29"></rect><rect width="672" height="3" x="-271" y="389.5" rx="1.5" transform="rotate(52, 65, 391)" opacity="0.75"></rect><rect width="594" height="3" x="2" y="633.5" rx="1.5" transform="rotate(52, 299, 635)" opacity="0.95"></rect><rect width="770" height="3" x="29" y="214.5" rx="1.5" transform="rotate(52, 414, 216)" opacity="0.80"></rect><rect width="82" height="3" x="141" y="104.5" rx="1.5" transform="rotate(52, 182, 106)" opacity="0.73"></rect><rect width="378" height="3" x="305" y="583.5" rx="1.5" transform="rotate(52, 494, 585)" opacity="0.22"></rect><rect width="993" height="3" x="-345.5" y="236.5" rx="1.5" transform="rotate(52, 151, 238)" opacity="0.55"></rect><rect width="102" height="3" x="556" y="442.5" rx="1.5" transform="rotate(52, 607, 444)" opacity="0.40"></rect><rect width="282" height="3" x="117" y="225.5" rx="1.5" transform="rotate(52, 258, 227)" opacity="0.61"></rect><rect width="971" height="3" x="-437.5" y="280.5" rx="1.5" transform="rotate(52, 48, 282)" opacity="0.92"></rect><rect width="566" height="3" x="227" y="198.5" rx="1.5" transform="rotate(52, 510, 200)" opacity="0.38"></rect><rect width="818" height="3" x="-34" y="547.5" rx="1.5" transform="rotate(52, 375, 549)" opacity="0.99"></rect><rect width="400" height="3" x="358" y="555.5" rx="1.5" transform="rotate(52, 558, 557)" opacity="0.92"></rect><rect width="668" height="3" x="425" y="174.5" rx="1.5" transform="rotate(52, 759, 176)" opacity="0.68"></rect><rect width="305" height="3" x="12.5" y="469.5" rx="1.5" transform="rotate(52, 165, 471)" opacity="0.59"></rect><rect width="545" height="3" x="87.5" y="751.5" rx="1.5" transform="rotate(52, 360, 753)" opacity="0.45"></rect><rect width="974" height="3" x="-444" y="482.5" rx="1.5" transform="rotate(52, 43, 484)" opacity="0.63"></rect><rect width="391" height="3" x="-68.5" y="39.5" rx="1.5" transform="rotate(52, 127, 41)" opacity="0.43"></rect><rect width="325" height="3" x="468.5" y="617.5" rx="1.5" transform="rotate(52, 631, 619)" opacity="0.32"></rect><rect width="815" height="3" x="-149.5" y="141.5" rx="1.5" transform="rotate(52, 258, 143)" opacity="0.75"></rect><rect width="741" height="3" x="246.5" y="511.5" rx="1.5" transform="rotate(52, 617, 513)" opacity="0.97"></rect><rect width="52" height="3" x="255" y="393.5" rx="1.5" transform="rotate(52, 281, 395)" opacity="0.18"></rect><rect width="673" height="3" x="-266.5" y="678.5" rx="1.5" transform="rotate(52, 70, 680)" opacity="0.28"></rect><rect width="282" height="3" x="572" y="383.5" rx="1.5" transform="rotate(52, 713, 385)" opacity="0.91"></rect><rect width="547" height="3" x="27.5" y="731.5" rx="1.5" transform="rotate(52, 301, 733)" opacity="0.64"></rect><rect width="668" height="3" x="-298" y="58.5" rx="1.5" transform="rotate(52, 36, 60)" opacity="0.82"></rect><rect width="731" height="3" x="308.5" y="158.5" rx="1.5" transform="rotate(52, 674, 160)" opacity="0.25"></rect><rect width="1007" height="3" x="111.5" y="263.5" rx="1.5" transform="rotate(52, 615, 265)" opacity="0.57"></rect><rect width="477" height="3" x="-72.5" y="625.5" rx="1.5" transform="rotate(52, 166, 627)" opacity="0.20"></rect><rect width="784" height="3" x="70" y="476.5" rx="1.5" transform="rotate(52, 462, 478)" opacity="0.83"></rect><rect width="490" height="3" x="99" y="282.5" rx="1.5" transform="rotate(52, 344, 284)" opacity="0.43"></rect><rect width="641" height="3" x="114.5" y="630.5" rx="1.5" transform="rotate(52, 435, 632)" opacity="0.48"></rect></g></svg>