<svg xmlns="http://www.w3.org/2000/svg" version="1.1" xmlns:xlink="http://www.w3.org/1999/xlink" xmlns:svgjs="http://svgjs.dev/svgjs" width="1500" height="1500" viewBox="0 0 1500 1500"><rect width="1500" height="1500" fill="#ffffff"></rect><g transform="matrix(0.6666666666666666,0,0,0.6666666666666666,249.94205438332676,384.29098550863984)"><svg viewBox="0 0 340 248" data-background-color="#ffffff" preserveAspectRatio="xMidYMid meet" height="1094" width="1500" xmlns="http://www.w3.org/2000/svg" xmlns:xlink="http://www.w3.org/1999/xlink"><g id="tight-bounds" transform="matrix(1,0,0,1,0.019701509668891504,0.5784342267104137)"><svg viewBox="0 0 339.9605969806622 247.2" height="247.2" width="339.9605969806622"><g><svg viewBox="0 0 395.5199999999999 287.59963615889734" height="247.2" width="339.9605969806622"><g transform="matrix(1,0,0,1,0,177.7481130713715)"><svg viewBox="0 0 395.5199999999999 109.85152308752585" height="109.85152308752585" width="395.5199999999999"><g id="textblocktransform"><svg viewBox="0 0 395.5199999999999 109.85152308752585" height="109.85152308752585" width="395.5199999999999" id="textblock"><g><svg viewBox="0 0 395.5199999999999 109.85152308752585" height="109.85152308752585" width="395.5199999999999"><g transform="matrix(1,0,0,1,0,0)"><svg width="395.5199999999999" viewBox="0.7 -39.6 145.09 40.300000000000004" height="109.85152308752585" data-palette-color="#080820"><path d="M20.4 0.7Q10.95 0.7 5.83-4.1 0.7-8.9 0.7-19.45L0.7-19.45Q0.7-39.6 20.3-39.6L20.3-39.6Q25.05-39.6 29.13-38.45 33.2-37.3 35.2-35.9L35.2-35.9 35.2-23.4 23.2-23.4 23.2-27Q23.2-28.9 22.35-29.8 21.5-30.7 19.8-30.7L19.8-30.7Q18.1-30.7 17.25-29.8 16.4-28.9 16.4-27L16.4-27 16.4-11.9Q16.4-10 17.25-9.1 18.1-8.2 19.8-8.2L19.8-8.2Q21.5-8.2 22.35-9.1 23.2-10 23.2-11.9L23.2-11.9 23.2-15.95 35.2-15.95 35.2-3Q33.15-1.6 29.13-0.45 25.1 0.7 20.4 0.7L20.4 0.7ZM65.35-38.9L73.8-8.2 75.8-8.2 75.8 0 56.2 0 56.2-8.2 59.2-8.2 58.4-12.2 51.6-12.2 50.8-8.2 53.8-8.2 53.8 0 36.7 0 36.7-8.2 38.7-8.2 47.15-38.9 65.35-38.9ZM54.75-27.45L52.7-17.5 57.3-17.5 55.25-27.45 54.75-27.45ZM111.15 0L77.4 0 77.4-8.2 79.9-8.2 79.9-30.7 77.4-30.7 77.4-38.9 111.15-38.9 111.15-23.8 99.95-23.8 99.95-30.7 93.9-30.7 93.9-22.8 98.3-22.8 98.3-17.1 93.9-17.1 93.9-8.2 99.95-8.2 99.95-16.1 111.15-16.1 111.15 0ZM135.84-8.2L135.84-12.3 145.79-12.3 145.79 0 112.74 0 112.74-7.2 128.14-30.7 122.94-30.7 122.94-26.6 112.99-26.6 112.99-38.9 144.99-38.9 144.99-31.7 129.64-8.2 135.84-8.2Z" opacity="1" transform="matrix(1,0,0,1,0,0)" fill="#080820" class="wordmark-text-0" data-fill-palette-color="primary" id="text-0"></path></svg></g></svg></g></svg></g></svg></g><g transform="matrix(1,0,0,1,107.33844887156786,0)"><svg viewBox="0 0 180.8431022568642 151.81480490696075" height="151.81480490696075" width="180.8431022568642"><g><svg xmlns="http://www.w3.org/2000/svg" data-name="Layer 1" viewBox="8.72213227718764 11.998567862844464 82.52365016133434 76.00143213715553" x="8" y="0" height="151.81480490696075" width="164.8431022568642" class="icon-icon-0" data-fill-palette-color="accent" id="icon-0"><path d="M52 88a2 2 0 0 1 0-4 7.48 7.48 0 0 0 5.57-2.7A9.49 9.49 0 0 0 59.95 74 8 8 0 0 0 53 67.07 7.62 7.62 0 0 0 48 68.15a5.55 5.55 0 0 0-2.16 7.34C46.77 77.18 48.46 78 51 78a2.26 2.26 0 0 0 2.58-2.1 2.63 2.63 0 0 0-2-2.93A2 2 0 1 1 52.4 69a6.61 6.61 0 0 1 5.17 7.25A6.24 6.24 0 0 1 51 82c-5.07 0-7.52-2.49-8.67-4.57a9.55 9.55 0 0 1 3.54-12.68 11.6 11.6 0 0 1 7.68-1.65A12.09 12.09 0 0 1 63.92 73.53 13.56 13.56 0 0 1 60.57 84 11.42 11.42 0 0 1 52 88Z" fill="#4d51b3" data-fill-palette-color="accent"></path><path d="M74.51 68.5a2 2 0 0 1-1.6-3.2A8 8 0 0 0 62.42 53.62a2 2 0 0 1-2-3.44A12 12 0 0 1 76.11 67.7 2 2 0 0 1 74.51 68.5Z" fill="#4d51b3" data-fill-palette-color="accent"></path><path d="M65.75 67.14a2 2 0 0 1-1.75-1 8 8 0 0 0-11.08-3 2 2 0 0 1-2-3.44A12 12 0 0 1 67.5 64.17a2 2 0 0 1-1.75 3Z" fill="#4d51b3" data-fill-palette-color="accent"></path><path d="M47 68a2 2 0 0 1-1.41-3.42L70.31 39.95c0.28-0.28 0.55-0.61 0.84-1l0.07-0.08A12 12 0 0 1 91 40.78a2 2 0 1 1-3.51 1.92 8 8 0 0 0-13.21-1.27l-0.07 0.08a16 16 0 0 1-1.12 1.27L48.42 67.42A2 2 0 0 1 47 68Z" fill="#4d51b3" data-fill-palette-color="accent"></path><path d="M74.51 68.5a2 2 0 0 1-1.45-3.38c0.27-0.29 6.69-7 9.13-9.13a9.32 9.32 0 0 0 3.18-5.12 2 2 0 1 1 3.93 0.76A13.14 13.14 0 0 1 84.82 59c-2.3 2-8.79 8.8-8.86 8.87A2 2 0 0 1 74.51 68.5Z" fill="#4d51b3" data-fill-palette-color="accent"></path><path d="M58 86a2 2 0 0 1-1.46-3.37l16.5-17.5A2 2 0 0 1 76 67.87l-16.5 17.5A2 2 0 0 1 58 86Z" fill="#4d51b3" data-fill-palette-color="accent"></path><path d="M66 67a2 2 0 0 1-1.41-3.41l23-23a2 2 0 0 1 2.83 2.83l-23 23A2 2 0 0 1 66 67Z" fill="#4d51b3" data-fill-palette-color="accent"></path><path d="M74 78a2 2 0 0 1-2-2V67a2 2 0 0 1 4 0v9A2 2 0 0 1 74 78Z" fill="#4d51b3" data-fill-palette-color="accent"></path><path d="M83 69H74a2 2 0 0 1 0-4h9a2 2 0 0 1 0 4Z" fill="#4d51b3" data-fill-palette-color="accent"></path><path d="M39.87 45.14a2 2 0 0 1-0.89-0.21L9.83 30.36a2 2 0 0 1 0-3.58l9.2-4.6h0L39 12.21a2 2 0 0 1 1.79 0L69.9 26.78a2 2 0 0 1 0 3.58L40.76 44.93A2 2 0 0 1 39.87 45.14ZM15.19 28.57L39.87 40.91 64.54 28.57 39.87 16.24Z" fill="#4d51b3" data-fill-palette-color="accent"></path><path d="M63 42a2 2 0 0 1-2-2V33a2 2 0 0 1 4 0v7A2 2 0 0 1 63 42Z" fill="#4d51b3" data-fill-palette-color="accent"></path><path d="M40.31 59.71a2 2 0 0 1-0.89-0.21L16.11 47.85A2 2 0 0 1 15 46.06V33a2 2 0 0 1 4 0V44.82L40.31 55.48l12-6A2 2 0 0 1 54.14 53L41.21 59.5A2 2 0 0 1 40.31 59.71Z" fill="#4d51b3" data-fill-palette-color="accent"></path><path d="M40 27a2 2 0 1 0 2 2 2 2 0 0 0-2-2Z" fill="#4d51b3" data-fill-palette-color="accent"></path><path d="M25.3 37.86a2 2 0 0 1-0.9-3.79l8.74-4.37a2 2 0 1 1 1.79 3.58l-8.74 4.37A2 2 0 0 1 25.3 37.86Z" fill="#4d51b3" data-fill-palette-color="accent"></path><path d="M25 67a2 2 0 0 1-2-2V63a2 2 0 0 1 4 0v2A2 2 0 0 1 25 67Z" fill="#4d51b3" data-fill-palette-color="accent"></path><path d="M25 59a2 2 0 0 1-2-2V36a2 2 0 0 1 4 0V57A2 2 0 0 1 25 59Z" fill="#4d51b3" data-fill-palette-color="accent"></path></svg></g></svg></g><g><rect width="79.55874736189901" height="9.906523718804909" y="140.90828118815583" x="288.18155112843203" fill="#4d51b3" data-fill-palette-color="accent"></rect><rect width="79.55874736189901" height="9.906523718804909" y="140.90828118815583" x="27.779701509668854" fill="#4d51b3" data-fill-palette-color="accent"></rect><rect width="79.55874736189901" height="9.906523718804909" y="121.09523375054602" x="288.18155112843203" fill="#4d51b3" data-fill-palette-color="accent"></rect><rect width="79.55874736189901" height="9.906523718804909" y="121.09523375054602" x="27.779701509668854" fill="#4d51b3" data-fill-palette-color="accent"></rect></g></svg></g><defs></defs></svg><rect width="339.9605969806622" height="247.2" fill="none" stroke="none" visibility="hidden"></rect></g></svg></g></svg>